<?xml version="1.0" encoding="utf-8"?>
<!-- Generator: Adobe Illustrator 20.0.0, SVG Export Plug-In . SVG Version: 6.00 Build 0)  -->
<svg version="1.0" id="Layer_1" xmlns="http://www.w3.org/2000/svg" xmlns:xlink="http://www.w3.org/1999/xlink" x="0px" y="0px"
	 viewBox="0 0 178.7 50" style="enable-background:new 0 0 178.7 50;" xml:space="preserve">
<style type="text/css">
	.st0{fill:#DFF2F1;}
	.st1{fill:#076186;}
</style>
<g>
	<path class="st0" d="M168.2,2.9c0.1,0.1,0.2,0.2,0.3,0.2c1.1,0.3,2.2,0.5,3.3,0.9c0.6,0.2,1.2,0.5,1.5,1.1v1.1
		c-0.6,1.9-1.1,3.6-1.7,5.3c0.2,0.2,0.3,0.4,0.5,0.7h3.3c0.6,0.4,0.7,1,0.8,1.6c0.1,1.5-0.2,3-0.4,4.5c0,0.2-0.2,0.4-0.3,0.6
		c-0.9,0.1-1.8,0.2-2.6,0.3c-0.4,0-0.8-0.1-1.2-0.1c-0.4,0-0.9,0.1-1.6,0.2c-0.1,0.3-0.4,0.6-0.5,0.9c-0.4,1.9-0.8,3.9-1.1,5.8
		c-0.1,0.5-0.1,1-0.2,1.4c-0.2,0.9,0,1.7,0,2.6c0,0.2,0.1,0.5,0.2,0.7c0.7,0.9,1.3,2,2.6,2.3c0.5,0.6,0.5,1.3,0.2,1.9
		c-0.5,0.9-1.1,1.9-1.7,2.8c-0.3,0.4-0.6,0.7-1,1.1c-0.5,0.4-0.6,0.4-1.8,0.4c-0.7-0.4-1.5-0.8-2.3-1.3c-2.6-1.6-3.8-4-4.2-7
		c-0.2-1.3,0-2.7,0.2-4c0.2-1.5,0.4-3,0.7-4.5c0.1-0.8,0.4-1.5,0.6-2.3c-0.1-0.3-0.2-0.6-0.3-0.9c-0.6-0.2-1.3,0-1.7-0.7
		c-0.1-0.7-0.2-1.5-0.2-2.3c0-0.8,0.2-1.6,0.2-2.4c0-0.3,0.2-0.6,0.3-0.8c0.7-0.3,1.4-0.4,2.1-0.4c0.6,0,0.6,0,1.2-0.5
		c0.2-1,0.5-2.1,0.9-3.1c0.5-1.1,0.7-2.4,1.1-3.6c0.3-0.9,0.6-1.8,1.4-2.3C167.4,2.9,167.8,2.9,168.2,2.9 M168.2,11.1
		c-0.1,0.1-0.1,0.1-0.2,0.2c0,0-0.1,0.1-0.1,0.1c0,0,0-0.1,0.1-0.1C168.1,11.2,168.1,11.2,168.2,11.1c0-0.1,0.1-0.2,0.2-0.2
		c0.1-0.1,0.1-0.1,0.2-0.2c0.1-0.1,0.1-0.1,0.2-0.2c0.1-0.1,0.1-0.1,0.2-0.2c0,0,0.1-0.1,0.1-0.1c0,0,0,0-0.1,0.1
		c-0.1,0.1-0.1,0.1-0.2,0.2c-0.1,0.1-0.1,0.1-0.2,0.2c-0.1,0.1-0.1,0.1-0.2,0.2C168.4,11,168.3,11.1,168.2,11.1 M165.7,18.3
		l-0.2,0.2c-0.1,0.1-0.1,0.1-0.2,0.2c-0.1,0.1-0.1,0.1-0.2,0.2c-0.1,0.1-0.1,0.1-0.2,0.2c-0.1,0.1-0.1,0.1-0.2,0.2
		c-0.1,0.1-0.1,0.1-0.2,0.2c-0.1,0.1-0.1,0.1-0.2,0.2c0,0-0.1,0.1-0.1,0.1c0,0,0-0.1,0.1-0.1c0.1-0.1,0.1-0.1,0.2-0.2
		c0.1-0.1,0.1-0.1,0.2-0.2c0.1-0.1,0.1-0.1,0.2-0.2c0.1-0.1,0.1-0.1,0.2-0.2c0.1-0.1,0.1-0.1,0.2-0.2c0.1-0.1,0.1-0.1,0.2-0.2
		C165.6,18.4,165.6,18.3,165.7,18.3c0-0.1,0.1-0.2,0.2-0.2l0.2-0.2c0.1-0.1,0.1-0.1,0.2-0.2c0.1-0.1,0.1-0.1,0.2-0.2
		c0.4,0,0.6-0.2,0.6-0.6c0,0,0.1-0.1,0.1-0.1c0,0,0,0-0.1,0.1c-0.3,0.1-0.5,0.3-0.6,0.6c-0.1,0.1-0.1,0.1-0.2,0.2
		c-0.1,0.1-0.1,0.1-0.2,0.2c-0.1,0.1-0.1,0.1-0.2,0.2C165.9,18.1,165.8,18.2,165.7,18.3 M169.1,17.2l0.2-0.2c0,0,0.1-0.1,0.1-0.1
		c0,0,0,0.1-0.1,0.1C169.2,17.1,169.2,17.1,169.1,17.2c0,0.1-0.1,0.2-0.2,0.2c0,0-0.1,0.1-0.1,0.1c0,0,0-0.1,0.1-0.1
		C168.9,17.3,169,17.2,169.1,17.2 M164.4,17.2c0.1-0.1,0.1-0.1,0.2-0.2c0.1-0.1,0.1-0.1,0.2-0.2c0.3,0,0.4-0.1,0.4-0.4
		c0,0,0.1-0.1,0.1-0.1c0,0,0,0.1-0.1,0.1c-0.1,0.1-0.3,0.3-0.4,0.4c-0.1,0.1-0.1,0.1-0.2,0.2C164.6,17.1,164.5,17.1,164.4,17.2
		c0,0.1-0.1,0.2-0.2,0.2c0,0-0.1,0.1-0.1,0.1c0,0,0,0,0.1-0.1C164.3,17.3,164.4,17.2,164.4,17.2 M164.9,12.1
		c0.1-0.1,0.1-0.1,0.2-0.2c0.4,0,0.6-0.1,0.7-0.7c-0.3,0.4-0.5,0.6-0.6,0.8C165,12,165,12.1,164.9,12.1
		C164.8,12.2,164.8,12.2,164.9,12.1C164.8,12.3,164.8,12.2,164.9,12.1 M169.5,12.1C169.5,12.1,169.6,12.1,169.5,12.1
		C169.6,12.1,169.5,12.1,169.5,12.1c0,0.1-0.1,0.2-0.2,0.2c-0.1,0.1-0.1,0.1,0,0c0,0.1,0,0,0-0.1C169.3,12.3,169.4,12.2,169.5,12.1
		 M166.1,10.9C166.2,10.9,166.2,10.8,166.1,10.9C166.2,10.8,166.2,10.9,166.1,10.9C166.1,10.9,166.1,11,166.1,10.9
		C166.1,11,166.1,10.9,166.1,10.9 M163.8,15.5l0.2-0.2c0.1-0.1,0.1-0.1,0.2-0.2c0.5-0.4,1.2-0.6,1.5-1.4c-1.2,0.7-1.2,0.7-1.4,1.4
		l-0.2,0.2C164,15.4,163.9,15.5,163.8,15.5c0,0.1-0.1,0.2-0.2,0.2c-0.2,0.2-0.4,0.4-0.6,0.6c0,0-0.1,0.1-0.1,0.1c0,0,0-0.1,0.1-0.1
		c0.4,0,0.6-0.2,0.6-0.6C163.7,15.6,163.7,15.6,163.8,15.5 M172,14.2C172,14.2,172.1,14.2,172,14.2C172.1,14.2,172,14.2,172,14.2
		C172,14.3,171.9,14.3,172,14.2C171.9,14.3,172,14.3,172,14.2 M166.8,12.6C166.8,12.5,166.8,12.5,166.8,12.6
		C166.8,12.5,166.8,12.6,166.8,12.6c0,0.1-0.1,0.2-0.2,0.2c-0.2,0.1-0.5,0.2-0.4,0.5c0.1-0.1,0.2-0.1,0.2-0.2
		c0.1-0.1,0.1-0.3,0.1-0.4C166.6,12.7,166.7,12.6,166.8,12.6 M170.5,15.7c-0.1,0.1-0.1,0.1-0.2,0.2c-0.1,0.1-0.1,0.1-0.2,0.2
		c0,0-0.1,0.1-0.1,0.1c0,0,0-0.1,0.1-0.1c0.1-0.1,0.1-0.1,0.2-0.2C170.4,15.9,170.4,15.8,170.5,15.7l0.2-0.2c0.5,0,0.7-0.3,0.7-0.8
		c-0.2,0.3-0.4,0.5-0.7,0.8C170.7,15.6,170.6,15.7,170.5,15.7 M168.2,20.3C168.3,20.3,168.3,20.3,168.2,20.3
		C168.3,20.3,168.3,20.3,168.2,20.3C168.2,20.4,168.2,20.4,168.2,20.3C168.2,20.4,168.2,20.4,168.2,20.3 M165.7,20.6
		c-0.1,0.1-0.1,0.1-0.2,0.2c0,0-0.1,0.1-0.1,0.1c0,0,0-0.1,0.1-0.1C165.6,20.7,165.6,20.6,165.7,20.6c0-0.1,0.1-0.1,0.1-0.1
		C165.8,20.5,165.8,20.5,165.7,20.6 M168,9c-0.2,0.2-0.4,0.4-0.6,0.6c-0.2,0.2-0.4,0.3-0.6,0.5c0.5,0.1,0.5-0.2,0.6-0.5
		C167.8,9.6,168,9.4,168,9C168,9,168.1,8.9,168,9C168.1,9,168.1,9,168,9 M167.2,19.1c-0.3,0.1-0.5,0.3-0.6,0.8
		C166.9,19.6,167.2,19.5,167.2,19.1c0-0.1,0.1-0.2,0.2-0.2c0.3-0.2,0.8-0.2,0.8-0.8c-0.4,0.2-0.8,0.3-0.8,0.8
		C167.3,19,167.3,19,167.2,19.1 M168.2,15.7c-0.3,0.1-0.6,0.3-0.6,0.8C168,16.3,168.2,16.1,168.2,15.7c0.1-0.1,0.1-0.2,0.2-0.2
		c0.2-0.1,0.5-0.2,0.7-0.4c0.1-0.1,0-0.3,0.1-0.6c-0.4,0.4-0.8,0.6-0.8,1C168.4,15.6,168.3,15.7,168.2,15.7 M171.2,12.8
		c-0.6,0.5-1.1,1-1.7,1.5C170.3,14.1,170.9,13.5,171.2,12.8c0.1-0.1,0.2-0.2,0.4-0.2c0,0-0.1-0.1-0.1-0.1
		C171.4,12.6,171.3,12.7,171.2,12.8 M167,14.2c-0.2,0.2-0.3,0.5-0.5,0.7c-0.2,0.2-0.5,0.3-0.3,0.8c0.7-0.7,1.3-1.3,1.9-2
		c0,0-0.1-0.1-0.1-0.1C167.7,13.8,167.4,14,167,14.2 M169.1,32.9c-0.6,0.5-1,1-1.2,1.7C168.6,34.2,168.9,33.8,169.1,32.9
		 M166.8,33.2c0.4-0.2,0.4-0.2,0.3-0.6C167,32.9,166.9,33.1,166.8,33.2 M166.6,33.8c-0.2,0-0.3,0-0.4,0c-0.1,0-0.1,0.1-0.2,0.2
		c0,0,0.1,0.1,0.1,0.1C166.2,34.1,166.3,34,166.6,33.8 M170.4,8.8c0,0,0.1,0.1,0.1,0.1c0.1-0.1,0.2-0.1,0.4-0.2c0,0,0-0.1-0.1-0.1
		C170.6,8.7,170.5,8.7,170.4,8.8 M163.5,18.4c0-0.1-0.1-0.1-0.1-0.2c-0.1,0.1-0.2,0.2-0.3,0.3c0,0,0.1,0.1,0.1,0.1
		C163.3,18.6,163.4,18.5,163.5,18.4 M163.3,21c-0.1-0.1-0.2-0.1-0.2-0.2c-0.1,0.1-0.1,0.2-0.2,0.2c0.1,0.1,0.1,0.1,0.2,0.2
		C163.1,21.2,163.2,21.1,163.3,21 M162,15.2h-0.2v0.1L162,15.2L162,15.2z M164.1,13.1C164,13.1,164.1,13.1,164.1,13.1
		C164,13.1,164,13.1,164.1,13.1 M169.2,7.8L169.2,7.8L169.2,7.8L169.2,7.8z M168.5,13.1L168.5,13.1L168.5,13.1L168.5,13.1z
		 M171.5,17.1L171.5,17.1L171.5,17.1L171.5,17.1z M163.9,27L163.9,27L163.9,27L163.9,27z M166.2,31.6L166.2,31.6L166.2,31.6
		L166.2,31.6z M165.8,31.9L165.8,31.9L165.8,31.9L165.8,31.9z"/>
	<path class="st0" d="M90.7,30.2c0.2-0.6,0.5-1.2,0.7-1.8c0.4-1.1,0.8-2.2,1.1-3.3c0.1-0.4,0.1-0.8,0.2-1.1c0.2-0.7,0.5-1.3,0.7-1.9
		c0.1-0.2,0.2-0.4,0.2-0.6c0.4-1.2,0.7-2.5,1.1-3.7c0.2-0.5,0.4-1,0.5-1.5c0.4-1.3,0.8-2.6,1.2-3.9c0.3-0.9,0.6-1.8,0.9-2.7
		c0.2-0.6,0.3-1.1,0.5-1.7c0.1-0.2,0.2-0.4,0.3-0.7c0.3-0.7,0.6-1.4,1-2.4c0.2-0.3,0.8-0.4,1.5-0.2c1.5,0.4,3,0.8,4.5,1.4
		c0.8,0.3,1.2,0.8,1.1,1.7c-0.1,1.3-0.3,2.6-0.4,3.8c-0.1,0.4-0.1,0.9-0.2,1.3c-0.1,0.7-0.1,1.5-0.2,2.2c-0.1,0.8-0.1,1.6-0.2,2.4
		c-0.1,1.1-0.2,2.2-0.3,3.3c-0.1,0.7-0.1,1.5-0.1,2.2c0,0.7,0,1.4-0.1,2.1c-0.1,0.6-0.1,1.2,0,1.7c0.2,0.9-0.1,1.9,0,2.8
		c0,0.2,0.1,0.4,0.2,0.9c0.2-0.5,0.3-0.7,0.4-0.9c0.5-1.7,1-3.4,1.6-5.1c0.4-1.1,0.7-2.2,1.1-3.3c0.8-2.1,1.4-4.3,2.1-6.4
		c1-3.1,2.1-6.2,3.3-9.2c0.2-0.5,0.4-1.1,1-1.5c0.8-0.2,1.6,0.2,2.3,0.5c1,0.4,2,1,2.9,1.6c0.2,0.1,0.5,0.3,0.7,0.5
		c0.3,0.3,0.5,0.7,0.4,1.1c-0.2,0.8-0.4,1.5-0.7,2.3c-0.7,1.5-1.4,3.1-1.8,4.8c0,0.1,0,0.2-0.1,0.3c-1.1,2.3-1.8,4.7-2.7,7.1
		c-0.5,1.3-0.9,2.6-1.4,3.9c-0.1,0.4-0.3,0.7-0.5,1c-0.1,0.1-0.2,0.2-0.2,0.4c-0.1,1.2-1,2.2-1.2,3.4c-0.2,0.9-0.7,1.8-1.1,2.7
		c-0.5,1.2-1,2.4-1.5,3.5c-0.3,0.6-0.6,1.2-1,1.8c-0.6,0-1.2,0.1-1.8,0.1c-2.8-0.8-5.6-1.8-7.7-3.8c-0.6-1.7-0.5-3.4-0.5-5
		c0-1.9,0-3.8,0-5.7c0-0.3,0-0.6-0.2-1c-0.4,1.1-0.9,2.2-1.3,3.4c-0.3,0.9-0.6,1.8-0.8,2.7c-0.2,0.7-0.4,1.4-0.7,2.1
		c-0.3,0.7-0.4,1.4-0.6,2.1c-0.1,0.3-0.2,0.5-0.3,0.8c-0.2,0.6-0.4,1.2-0.6,1.8c-0.4,0.9-0.7,1.8-1.4,2.5c-0.6,0.1-1.1,0.1-1.7,0.2
		c-0.8-0.3-1.7-0.5-2.6-0.8c-1.4-0.4-2.6-1.2-3.8-1.9c-0.3-0.2-0.6-0.6-0.8-0.9c-0.5-0.8-0.7-1.7-0.7-2.6c0-0.7-0.1-1.4-0.2-2.1
		c0-0.2,0-0.5,0-0.7c0-1,0.1-2.1,0.1-3.1c0-0.2-0.1-0.5-0.1-0.7c0-1,0.1-1.9,0.1-2.9c0.1-1.7,0.1-3.4,0.2-5.1
		c0.1-1.8,0.3-3.5,0.4-5.3c0.1-1.5,0.3-3,0.4-4.4c0-0.2,0.1-0.4,0.2-0.6c0.1-0.4,0.1-0.9,0.1-1.3c0-0.8,0.3-1.5,0.4-2.1
		c0.7-0.7,1.4-0.6,2.1-0.5c1.1,0.2,2.1,0.4,3.2,0.6c0.9,0.1,1.6,0.5,2.3,1.1c0,0.5,0,1,0,1.5c-0.2,1.7-0.4,3.5-0.5,5.2
		c-0.1,0.8-0.3,1.6-0.1,2.5c0,0.1,0,0.1,0,0.2c-0.4,1.4-0.3,2.9-0.4,4.4c0,0.1,0,0.3-0.1,0.4c-0.2,1-0.3,1.9-0.3,2.9
		c0,0.5-0.2,1-0.2,1.5c0,1-0.1,2-0.1,3c0,0.6-0.1,1.2-0.2,1.9C90.4,29.5,90.4,29.8,90.7,30.2 M107.6,34.8
		C107.6,34.9,107.6,34.9,107.6,34.8C107.6,34.9,107.6,34.8,107.6,34.8l0.1-0.2C107.7,34.7,107.7,34.8,107.6,34.8 M99.7,17.4
		c0.1-0.1,0.1-0.1,0.2-0.2c0,0,0.1-0.1,0.1-0.1c0,0,0,0-0.1,0.1C99.8,17.3,99.7,17.3,99.7,17.4c0,0.1-0.1,0.2-0.2,0.2
		c0,0-0.1,0.1-0.1,0.1c0,0,0.1-0.1,0.1-0.2C99.5,17.5,99.6,17.5,99.7,17.4 M100.5,18.9C100.5,18.9,100.4,18.9,100.5,18.9
		C100.4,18.9,100.5,18.9,100.5,18.9c0-0.1,0.1-0.1,0.1-0.1C100.6,18.8,100.5,18.8,100.5,18.9 M102.2,14.9
		C102.2,14.8,102.3,14.8,102.2,14.9C102.3,14.8,102.2,14.9,102.2,14.9c0,0.1-0.1,0.2-0.2,0.2c0,0-0.1,0.1-0.1,0.1c0,0,0-0.1,0.1-0.1
		C102,15,102.1,14.9,102.2,14.9 M113.1,15.5c0.1-0.1,0.1-0.1,0.2-0.2c0,0,0.1-0.1,0.1-0.1c0,0,0,0.1-0.1,0.1
		C113.2,15.4,113.2,15.5,113.1,15.5C113.1,15.6,113,15.6,113.1,15.5C113,15.6,113,15.5,113.1,15.5 M98,16.8
		C98,16.7,98.1,16.7,98,16.8C98.1,16.7,98,16.7,98,16.8c0,0.1-0.1,0.1-0.1,0.1C97.9,16.8,97.9,16.8,98,16.8 M98.8,16
		c0,0-0.1,0.1-0.1,0.1C98.8,16,98.8,16,98.8,16C98.8,15.9,98.9,15.9,98.8,16C98.9,15.9,98.9,15.9,98.8,16 M86.4,23.7
		c0,0,0.1-0.1,0.1-0.1C86.5,23.6,86.5,23.7,86.4,23.7c0,0.1-0.1,0.1-0.1,0.1C86.4,23.8,86.4,23.7,86.4,23.7 M98.8,20.5
		c0.1-0.1,0.1-0.1,0.2-0.2c0.1-0.1,0.3-0.1,0.4-0.2c0,0-0.1-0.1-0.1-0.1c-0.1,0.1-0.2,0.2-0.3,0.4C99,20.4,98.9,20.5,98.8,20.5
		c0,0.1-0.1,0.1-0.1,0.1C98.8,20.6,98.8,20.6,98.8,20.5 M87.5,20.3C87.5,20.3,87.6,20.3,87.5,20.3C87.6,20.3,87.5,20.3,87.5,20.3
		l-0.1,0.2C87.4,20.4,87.5,20.4,87.5,20.3 M86.2,35.4c0.1,0,0.2,0,0.3-0.1c0,0,0-0.1-0.1-0.1C86.4,35.3,86.3,35.4,86.2,35.4
		c0,0.1,0,0.1-0.1,0.1C86.2,35.5,86.2,35.5,86.2,35.4 M101.6,17.8c-0.2,0.1-0.4,0.2-0.4,0.5C101.5,18.3,101.5,18.1,101.6,17.8
		c0-0.1,0-0.1,0.1-0.2C101.6,17.7,101.6,17.8,101.6,17.8 M100.7,16.3c0.3-0.2,0.6-0.4,0.9-0.6C101.1,15.8,100.7,15.8,100.7,16.3
		c0,0.1,0,0.1-0.1,0.2C100.6,16.4,100.7,16.4,100.7,16.3 M86.9,11.5c0,0.1,0.1,0.1,0.1,0.2c0.2-0.1,0.3-0.3,0.5-0.4
		c0,0-0.1-0.1-0.1-0.1C87.2,11.3,87,11.4,86.9,11.5 M89.4,14c0,0-0.1-0.1-0.1-0.1c-0.1,0.1-0.3,0.3-0.4,0.4c0,0,0.1,0.1,0.1,0.1
		C89.1,14.3,89.2,14.2,89.4,14 M107,31c-0.1-0.1-0.1-0.1-0.2-0.2c-0.1,0.1-0.2,0.3-0.2,0.4c0,0,0.1,0.1,0.1,0.1
		C106.8,31.3,106.9,31.1,107,31 M87.2,16.3c0,0-0.1-0.1-0.1-0.1c-0.1,0.1-0.2,0.2-0.4,0.3c0,0,0.1,0.1,0.1,0.1
		C87,16.5,87.1,16.4,87.2,16.3 M86.5,14.3c0,0,0.1,0.1,0.1,0.1c0.1-0.1,0.2-0.1,0.3-0.2c0,0-0.1-0.1-0.1-0.1
		C86.7,14.2,86.6,14.3,86.5,14.3 M112.1,14.4C112.1,14.4,112.1,14.3,112.1,14.4c0-0.1-0.1-0.1-0.1-0.1C112,14.3,112,14.4,112.1,14.4
		C112.1,14.4,112.1,14.4,112.1,14.4 M87.2,13.8h0.2v-0.1L87.2,13.8L87.2,13.8z M102.7,30.5L102.7,30.5l0.2,0.1c0,0,0,0,0-0.1H102.7z
		 M88.3,33.5c0,0.1-0.1,0.1-0.1,0.1c0,0,0,0,0.1,0.1C88.2,33.6,88.3,33.5,88.3,33.5 M87.2,9.1L87.2,9.1L87.2,9.1L87.2,9.1z
		 M86.1,17.1L86.1,17.1L86.1,17.1L86.1,17.1z M88.2,12.7L88.2,12.7L88.2,12.7L88.2,12.7z M88,15.2L88,15.2L88,15.2L88,15.2z
		 M88.7,19.2L88.7,19.2L88.7,19.2L88.7,19.2z M115.3,11L115.3,11L115.3,11L115.3,11z M102.1,19.6L102.1,19.6L102.1,19.6L102.1,19.6z
		 M113.8,17L113.8,17L113.8,17L113.8,17z M109.7,30.5L109.7,30.5L109.7,30.5L109.7,30.5z M86,31.1L86,31.1L86,31.1L86,31.1z"/>
	<path class="st0" d="M10.4,38.9c-1,0.2-1.9,0.1-2.7-0.2c-1.2-0.4-2.3-0.7-3.5-1.1c-0.7-0.7-0.7-1.6-0.6-2.6c0-0.2,0.1-0.3,0.1-0.5
		c-0.2-2.1,0.6-4.2,0.7-6.3c0-1,0.3-1.9,0.5-2.9c0.1-0.5,0.2-1,0.3-1.5c0.3-1.5,0.7-3,0.8-4.5c0.1-1.1,0.4-2.1,0.7-3.2
		c0.1-0.5,0.1-1,0.2-1.5c0.3-1.4,0.7-2.8,1.1-4.1C7.9,10,8,9.5,8.1,9.1c0.1-0.4,0.2-0.8,0.3-1.2c0.3-1,0.7-2,1-2.9
		c0.1-0.2,0.1-0.4,0.2-0.6c0.5-0.4,1.1-0.6,1.8-0.4C11.6,4,12,4,12.1,4c1.4,0.4,2.6,0.7,3.7,1.1c0.4,0.1,0.9,0.2,1.2,0.8
		c0,0.2,0.1,0.5,0,0.8c-0.4,0.9-0.5,1.9-0.9,2.9c-0.2,0.5-0.4,1-0.4,1.5c-0.2,1.8-1,3.6-1.3,5.4c-0.1,0.8-0.3,1.7-0.5,2.6
		c0.4,0,0.8,0.1,1,0.1c0.9-0.6,1.4-1.4,2-2.1c1.2-1.6,2.4-3.2,3.6-4.8c1.1-1.4,2.2-2.8,3.2-4.2c0.3-0.4,0.6-0.9,0.9-1.4
		c0.2-0.3,0.4-0.6,0.6-0.8c0.3-0.3,0.6-0.7,0.9-1c0.3-0.4,0.6-0.6,1.2-0.8c0.8,0.3,1.6,0.9,2.3,1.5c0.7,0.7,1.4,1.4,2.1,2.2
		c0.3,0.4,0.7,0.7,0.7,1.4c-0.2,0.3-0.4,0.8-0.8,1.2c-0.5,0.6-1.1,1-1.6,1.6c-0.7,0.8-1.4,1.5-2.1,2.3c-1.4,1.5-2.7,3-4.1,4.5
		c-0.8,0.9-1.5,1.7-2.3,2.6c-0.3,0.4-0.7,0.7-1.1,1.1c-0.1,0.7,0.3,1.3,0.6,1.9c0.4,0.6,0.8,1.2,1.1,1.9c0.2,0.5,0.6,0.9,0.9,1.4
		c0.7,1.3,1.5,2.6,2.5,3.8c0.7,1,1.4,2,2.3,2.8c0.3,0.3,0.5,0.6,0.3,1.2c-1.5,1.5-3.3,2.6-5.1,3.7c-1,0.3-1.9-0.1-2.5-0.9
		c-0.7-0.8-1.4-1.7-1.9-2.7c-0.7-1.3-1.3-2.6-1.9-3.9c-0.5-1-0.9-2-1.2-3.1c-0.3-1-0.7-2-1.5-2.8c-1,0-1.4,0.3-1.5,1.2
		c-0.2,1.2-0.5,2.5-0.5,3.7c0,0.3,0,0.6-0.1,0.8c-0.4,1.3-0.4,2.6-0.7,3.9c0,0.2-0.1,0.5,0,0.7C11,37,10.7,37.9,10.4,38.9 M9.3,17.8
		c0.1-0.1,0.1-0.1,0.2-0.2c0.4,0,0.6-0.2,0.6-0.6c0,0,0.1-0.1,0.1-0.1c0,0,0,0.1-0.1,0.1c-0.2,0.2-0.4,0.4-0.6,0.6
		C9.4,17.7,9.4,17.8,9.3,17.8c0,0.1-0.1,0.1-0.1,0.1C9.2,17.9,9.2,17.8,9.3,17.8 M12.2,19.5C12.3,19.5,12.3,19.4,12.2,19.5
		C12.3,19.4,12.3,19.5,12.2,19.5c0,0.1-0.1,0.2-0.2,0.2c-0.1,0.1-0.2,0.2-0.3,0.3c0.1,0,0.1,0.1,0.2,0.1c0-0.1,0.1-0.3,0.1-0.4
		C12.1,19.6,12.1,19.6,12.2,19.5 M9.7,15.1c0.1-0.1,0.1-0.1,0.2-0.2c0.1-0.1,0.1-0.1,0.2-0.2c0.2-0.1,0.4-0.3,0.6-0.4
		c-0.4-0.1-0.6,0-0.6,0.4c-0.1,0.1-0.1,0.1-0.2,0.2C9.9,15,9.8,15,9.7,15.1c0,0.1-0.1,0.2-0.2,0.2c-0.1,0.1-0.1,0.1-0.2,0.2
		l-0.2,0.2c0,0,0.1,0,0.1,0.1c0-0.1,0-0.2,0.1-0.3c0.1-0.1,0.1-0.1,0.2-0.2C9.5,15.2,9.6,15.1,9.7,15.1 M11.2,15.9
		C11.1,16,11,16.1,11,16.2c0,0-0.1,0.1-0.1,0.1c0,0,0-0.1,0.1-0.1C11,16.1,11.1,16,11.2,15.9C11.2,15.9,11.3,15.9,11.2,15.9
		C11.2,15.8,11.2,15.9,11.2,15.9 M8.9,13.6C8.9,13.6,8.9,13.6,8.9,13.6C8.9,13.6,8.9,13.6,8.9,13.6C8.8,13.7,8.8,13.7,8.9,13.6
		C8.8,13.7,8.8,13.7,8.9,13.6 M13.7,13.4c0,0-0.1,0.1-0.1,0.1C13.6,13.5,13.6,13.4,13.7,13.4C13.7,13.4,13.8,13.3,13.7,13.4
		C13.8,13.4,13.7,13.4,13.7,13.4 M17.7,23.3c0,0,0.1-0.1,0.1-0.1C17.7,23.2,17.7,23.2,17.7,23.3c0,0.1-0.1,0.1-0.1,0.1
		C17.6,23.3,17.6,23.3,17.7,23.3 M9.3,24.8L9.1,25c-0.3,0.2-0.5,0.3-0.9,0.6c0.6,0.1,0.8-0.1,0.8-0.6C9.1,24.9,9.2,24.8,9.3,24.8
		c0-0.1,0.1-0.2,0.2-0.2c0,0,0.1-0.1,0.1-0.1c0,0,0,0.1-0.1,0.1C9.4,24.6,9.4,24.7,9.3,24.8 M11.2,20.5
		C11.2,20.5,11.2,20.5,11.2,20.5C11.2,20.5,11.2,20.5,11.2,20.5c0,0.1-0.1,0.2-0.2,0.2c0,0-0.1,0.1-0.1,0.1c0,0,0,0,0.1-0.1
		C11,20.7,11.1,20.6,11.2,20.5 M13.3,20.8c-0.1,0.1-0.1,0.1-0.2,0.2c-0.1,0.1-0.1,0.1-0.2,0.2c-0.6,0-0.7,0.5-0.8,0.8
		c0,0-0.1,0.1-0.1,0.1c0-0.1,0-0.1,0.1-0.2c0.6,0,0.7-0.5,0.8-0.8c0.1-0.1,0.1-0.1,0.2-0.2C13.1,20.9,13.2,20.8,13.3,20.8
		c0-0.1,0.1-0.1,0.1-0.1C13.3,20.7,13.3,20.7,13.3,20.8 M7,24.7l0.2-0.2c0.5,0,0.7-0.3,0.7-0.8c-0.2,0.3-0.4,0.5-0.7,0.8
		C7.1,24.6,7.1,24.7,7,24.7c0,0.1,0,0.1-0.1,0.2L7,24.7z M11.4,13.4l-0.3,0.3l0.2,0.1C11.3,13.7,11.3,13.5,11.4,13.4
		C11.4,13.4,11.5,13.3,11.4,13.4C11.5,13.4,11.4,13.4,11.4,13.4 M13.9,22.4c0.1-0.1,0.3-0.1,0.4-0.2c0,0-0.1-0.1-0.1-0.1
		C14.1,22.2,14,22.3,13.9,22.4c0,0.1-0.1,0.1-0.1,0.1C13.8,22.5,13.9,22.5,13.9,22.4 M18.7,26.9c-0.1,0.1-0.3,0.1-0.4,0.2
		c0,0,0.1,0.1,0.1,0.1C18.5,27.1,18.6,26.9,18.7,26.9c0-0.1,0-0.1,0.1-0.2C18.8,26.8,18.8,26.8,18.7,26.9 M11.4,18
		c-0.3,0.1-0.4,0.2-0.4,0.5C11.3,18.5,11.4,18.3,11.4,18c0-0.1,0.1-0.2,0.2-0.2c0.2-0.1,0.4-0.1,0.6-0.2c0-0.1-0.1-0.1-0.1-0.2
		c-0.1,0.1-0.3,0.3-0.4,0.4C11.5,17.9,11.5,18,11.4,18 M9.7,22c-0.2,0.2-0.4,0.4-0.6,0.6c0,0-0.1,0.1-0.1,0.1c0,0,0,0,0.1-0.1
		C9.5,22.6,9.7,22.4,9.7,22C9.7,22,9.8,21.9,9.7,22C9.8,22,9.7,22,9.7,22 M10.1,19.3c0.3,0,0.6-0.1,0.5-0.6
		C10.4,18.9,10.3,19.1,10.1,19.3c0,0.1-0.1,0.2-0.2,0.2c-0.6,0.1-0.9,0.5-1,1c-0.3,0.3-0.6,0.6-0.8,0.8c-0.1,0.1-0.2,0.2-0.3,0.3
		c0.1,0,0.1,0.1,0.2,0.1c0-0.1,0.1-0.3,0.1-0.4c0.6,0,0.8-0.3,0.8-0.8c0.3-0.2,0.6-0.3,0.8-0.5c0.1-0.1,0.2-0.3,0.2-0.5
		C10,19.4,10,19.3,10.1,19.3 M10.7,23.3c0.4,0,0.5-0.2,0.5-0.6C11.1,22.9,10.9,23.1,10.7,23.3c0,0.1,0,0.1-0.1,0.1
		C10.7,23.4,10.7,23.3,10.7,23.3 M15.9,22.5c0.7-0.1,0.8-0.1,0.7-0.7C16.3,22.1,16.2,22.2,15.9,22.5 M22.7,16.2
		C22.7,16.1,22.7,16.1,22.7,16.2L22,16.7c0,0,0,0,0.1,0.1C22.3,16.6,22.5,16.4,22.7,16.2 M16.9,19.3c0.4,0,0.6-0.2,0.6-0.7
		C17.3,18.9,17.1,19.1,16.9,19.3 M11.2,25.4c0,0-0.1-0.1-0.1-0.1c-0.1,0-0.1,0.1-0.2,0.1c0,0.1,0,0.2-0.1,0.3
		C11,25.6,11.1,25.5,11.2,25.4 M10.5,21.4c0,0-0.1-0.1-0.1-0.1c-0.1,0-0.2,0.1-0.2,0.1c0,0.1,0,0.2,0,0.3
		C10.3,21.6,10.4,21.5,10.5,21.4 M12.7,16.6c0,0.1,0.1,0.1,0.1,0.2c0.1-0.1,0.2-0.2,0.3-0.3c0,0-0.1-0.1-0.1-0.1
		C13,16.5,12.8,16.5,12.7,16.6 M20.1,28.2C20,28.1,19.9,28,19.8,28c-0.1,0.1-0.1,0.2-0.2,0.2c0.1,0.1,0.1,0.1,0.2,0.2
		C19.9,28.3,20,28.2,20.1,28.2 M11.8,24.7c0,0-0.1-0.1-0.1-0.1c-0.1,0.1-0.2,0.1-0.2,0.2c0,0,0.1,0.1,0.1,0.1
		C11.6,24.8,11.7,24.7,11.8,24.7 M14.9,21.6c0,0-0.1-0.1-0.1-0.1c-0.1,0.1-0.1,0.2-0.2,0.2c0,0,0.1,0.1,0.1,0.1
		C14.8,21.7,14.8,21.7,14.9,21.6 M17.4,21.2L17.4,21.2L17.4,21.2L17.4,21.2z M7.7,26.5L7.7,26.5L7.7,26.5L7.7,26.5z M9.8,26.5
		L9.8,26.5L9.8,26.5L9.8,26.5z M16.7,26.5L16.7,26.5L16.7,26.5L16.7,26.5z M19.7,25.8L19.7,25.8L19.7,25.8L19.7,25.8z M10,24L10,24
		L10,24L10,24z M8.4,16.5L8.4,16.5L8.4,16.5L8.4,16.5z M21.8,28.4L21.8,28.4L21.8,28.4L21.8,28.4z"/>
	<path class="st0" d="M73.7,14.1c0.1,0.3,0.3,0.6,0.3,0.7c-0.6,2.6-1.3,5.1-1.7,7.7c-0.2,0.9-0.5,1.7-0.4,2.6c0,0.4-0.2,0.7-0.3,1.1
		c0,0.2-0.2,0.3-0.2,0.5c-0.2,1-0.3,2.1-0.5,3.1c0,0.2,0,0.4-0.1,0.6c-0.5,1.7-0.6,3.5-1.1,5.2c-0.1,0.4-0.1,0.8-0.1,1.1
		c-0.3,1.8-0.9,3.6-1.6,5.3c-0.9,2-2.1,3.7-3.9,5c-0.9,0.7-2,1.1-3.1,1.4c-1.3,0.5-2.7,0.4-4,0.1c-0.4-0.1-0.8-0.1-1.2-0.2
		c-1.3-0.8-2.9-1-4.5-2.2c-0.7-0.8-0.4-1.9,0-3c0.2-0.5,0.4-0.9,0.6-1.4c0.2-0.4,0.4-0.7,1-0.9c1.8,0.9,3.8,1.4,6.4,0.6
		c0.7-0.5,1.8-1.2,2.3-2.6c0.1-0.2,0.1-0.3,0.2-0.5c0.7-0.9,0.8-1.9,1-2.9c0.1-0.3,0.1-0.7,0.2-1c-0.5,0.2-0.5,0.2-0.8,0.7
		c-0.8,0.8-1.4,1.5-2.2,2.3c-0.6,0.3-1.3,0.8-2.1,1.3c-0.7,0.2-1.3,0-1.9-0.2c-1.8-0.6-3.3-1.6-4.4-3.2c-0.2-0.4-0.5-0.7-0.7-1
		c-0.7-1-1.1-2.2-1.1-3.4c0-0.7,0-1.4-0.1-2c0.1-1.3,0.2-2.5,0.3-3.6c0.1-0.6,0.2-1.2,0.3-1.7c0.3-1.4,0.6-2.8,0.9-4.3
		c0.1-0.3,0.1-0.7,0.2-1c0.3-1.1,0.6-2.1,1-3.2c0.3-0.8,0.7-1.6,1.1-2.5c0.5-0.2,1-0.2,1.5,0c1.5,0.6,2.9,1.2,4.4,1.8
		c0.5,0.2,0.7,0.5,0.8,1c-0.3,1.8-1.1,3.5-1.4,5.3c-0.2,1.2-0.7,2.3-0.9,3.5c-0.3,1.5-0.7,3-0.8,4.5c0,0.6-0.2,1.2-0.2,1.9
		c0,0.4,0.1,0.7,0.2,1c0.5,0.2,0.9,0,1.2-0.2c1.5-0.7,2.8-1.7,3.8-3c0.1-0.1,0.1-0.3,0.2-0.3c0.9-0.6,1.1-1.6,1.3-2.5
		c0.2-0.8,0.3-1.6,0.4-2.4c0.1-0.6,0.2-1.2,0.3-1.9c0.1-0.4,0.1-0.8,0.2-1.1c0.6-1.7,0.9-3.5,1.4-5.2c0.3-0.9,0.5-1.9,1.3-2.5
		C69.8,12.1,71.6,13.3,73.7,14.1 M66.3,32.3c0.1-0.1,0.1-0.1,0.2-0.2c0,0,0.1-0.1,0.1-0.1c0,0,0,0.1-0.1,0.1
		C66.5,32.2,66.4,32.2,66.3,32.3c0,0.1-0.1,0.2-0.2,0.2c-0.1,0.1-0.1,0.1-0.2,0.2c0,0-0.1,0.1-0.1,0.1c0,0,0-0.1,0.1-0.1
		c0.1-0.1,0.1-0.1,0.2-0.2C66.2,32.4,66.2,32.3,66.3,32.3 M66.9,33.9c0.1-0.1,0.1-0.1,0.2-0.2c0.3,0,0.4-0.1,0.4-0.4
		c0,0,0.1-0.1,0.1-0.1c0,0,0,0.1-0.1,0.1c-0.1,0.1-0.3,0.3-0.4,0.4C67.1,33.8,67,33.9,66.9,33.9C66.9,34,66.9,34,66.9,33.9
		C66.9,34,66.9,34,66.9,33.9 M59,46.3C59,46.3,59.1,46.3,59,46.3C59.1,46.3,59,46.3,59,46.3c0,0.1,0,0.1-0.1,0.2
		C58.9,46.4,58.9,46.4,59,46.3 M57.1,32.1c-0.5,0.4-1.2,0.6-1.3,1.4C57.1,33,57.3,32.8,57.1,32.1 M55.8,31.5c-0.1,0-0.1-0.1-0.2-0.1
		c-0.2,0.2-0.6,0.4-0.3,1C55.5,32,55.7,31.7,55.8,31.5 M58.6,44.2c0,0,0.1,0.1,0.1,0.1c0.2-0.1,0.3-0.3,0.5-0.4c0,0-0.1-0.1-0.1-0.1
		C58.9,44,58.7,44.1,58.6,44.2 M67.7,17.1c0,0-0.1-0.1-0.1-0.1c-0.1,0.1-0.1,0.1-0.2,0.2c0,0,0,0.1,0.1,0.1
		C67.5,17.2,67.6,17.2,67.7,17.1 M65.1,35.9c0,0,0.1,0.1,0.1,0.1c0.1-0.1,0.1-0.2,0.2-0.2c0,0-0.1-0.1-0.1-0.1
		C65.2,35.7,65.1,35.8,65.1,35.9 M57.4,45.6c0.1,0,0.1,0.1,0.2,0.1c0.1-0.1,0.1-0.2,0.2-0.3c0,0-0.1-0.1-0.1-0.1
		C57.5,45.4,57.4,45.5,57.4,45.6 M64.5,29.4c0.1,0,0.1,0.1,0.2,0.1c0-0.1,0.1-0.2,0.1-0.3l-0.1-0.1C64.6,29.3,64.5,29.3,64.5,29.4
		 M71,20.6C71,20.6,71.1,20.7,71,20.6c0.2,0,0.2,0,0.3-0.1c0,0-0.1-0.1-0.1-0.1C71.1,20.5,71.1,20.5,71,20.6 M70,14.8L70,14.8
		L70,14.8L70,14.8z M55.3,45.4L55.3,45.4L55.3,45.4L55.3,45.4z M59.5,43.5L59.5,43.5L59.5,43.5L59.5,43.5z M52,28.2L52,28.2L52,28.2
		L52,28.2z M65.8,35.1L65.8,35.1L65.8,35.1L65.8,35.1z M55.1,34.3L55.1,34.3L55.1,34.3L55.1,34.3z M68.7,32.2L68.7,32.2L68.7,32.2
		L68.7,32.2z"/>
	<path class="st0" d="M33.3,14.9c1.1-0.8,2.1-1.5,3.2-2.3c0.5-0.3,1-0.4,1.5-0.5c1.7-0.3,3.3,0.3,4.9,0.8c0.9,0.3,1.8,0.7,2.7,1.1
		c0.3,0.1,0.6,0.4,0.9,0.7c0.2,0.2,0.4,0.4,0.7,0.5c1.1,0.5,1.6,1.6,2.2,2.6c0.1,0.1,0.1,0.3,0.1,0.5c0,1,0.2,2.1,0,3.1
		c-0.2,0.9-0.5,1.8-1,2.6c-0.3,0.4-0.5,0.8-0.7,1.1c-0.7,0.6-1.4,1.2-2.1,1.8c-0.8,0.4-1.5,0.7-2.2,1.1c-0.3,0.1-0.7,0.2-1.1,0.3
		c-1.3,0.1-2.6,0.2-3.8,0.3c-0.2,0-0.5-0.1-0.7-0.1c-0.5,0-1,0-1.4,0c-0.4,0.4-0.4,0.7-0.3,1.1c0.3,1.3,1.3,2.5,2.6,2.8
		c0.2,0,0.4,0.1,0.6,0c1.1-0.2,2.1-0.3,3.1-0.8c0.6-0.3,1.3-0.6,1.9-0.8c0.3-0.1,0.6-0.1,1-0.1c0.9,1.5,1.9,2.9,1.6,4.8
		c-1.9,2-4.1,3.4-7.1,3.7c0,0-0.2-0.1-0.4-0.1c-1.2,0.1-2.4-0.2-3.6-0.6c-0.6-0.2-1.2-0.5-1.8-0.8c-0.4-0.2-0.8-0.5-1.3-0.7
		c-1.9-0.8-2.9-2.5-3.6-4.3c-1-2.3-0.8-4.7-0.5-7.1c0.2-1.7,0.7-3.2,1.2-4.8c0.1-0.3,0.3-0.6,0.4-1c0.3-0.7,0.6-1.4,1-2
		c0.3-0.6,0.8-1.1,1.2-1.6c0.3-0.4,0.5-0.7,0.8-1.1C33.3,15,33.3,14.9,33.3,14.9 M34.2,18.2C34.3,18.2,34.3,18.2,34.2,18.2
		C34.3,18.2,34.3,18.2,34.2,18.2c0,0.1-0.1,0.2-0.2,0.2c0,0-0.1,0.1-0.1,0.1c0,0,0,0,0.1-0.1C34.1,18.4,34.2,18.3,34.2,18.2
		 M47,21.6C47.1,21.6,47.1,21.5,47,21.6C47.1,21.5,47.1,21.6,47,21.6C47,21.6,47,21.7,47,21.6C47,21.7,47,21.6,47,21.6 M35.1,26.6
		c0,0,0.1-0.1,0.1-0.1C35.2,26.6,35.1,26.6,35.1,26.6c0,0.1,0,0.1-0.1,0.1C35,26.7,35,26.7,35.1,26.6 M34.6,20.3
		c0.1-0.1,0.2-0.2,0.4-0.3c0,0-0.1-0.1-0.1-0.1L34.6,20.3C34.6,20.4,34.6,20.4,34.6,20.3C34.6,20.4,34.6,20.4,34.6,20.3 M37.4,24
		c1-0.2,1.9-0.2,2.8-0.8c1.5-1,2.3-2.2,2.2-4c0-0.9-0.3-1.2-1.2-1.6c-0.1,0.1-0.3,0.1-0.5,0.2c-1.1,0.6-1.8,1.6-2.5,2.6
		c-0.5,0.8-0.9,1.7-1.2,2.6c0,0.1,0,0.2-0.1,0.3C37.1,23.5,37.2,23.7,37.4,24 M36.4,16c0.1,0,0.1,0.1,0.2,0.1
		c0.1-0.1,0.1-0.2,0.2-0.3c0,0-0.1-0.1-0.1-0.1C36.5,15.9,36.5,15.9,36.4,16 M34.4,32.1c0-0.1-0.1-0.1-0.1-0.2
		c-0.1,0.1-0.1,0.2-0.2,0.2c0,0,0.1,0.1,0.1,0.1C34.3,32.2,34.4,32.2,34.4,32.1 M33.2,33.3C33.1,33.3,33.1,33.2,33.2,33.3
		c-0.2,0-0.2,0.1-0.3,0.2c0,0,0.1,0.1,0.1,0.1C33,33.4,33.1,33.4,33.2,33.3 M33.3,26.5c-0.1-0.1-0.1-0.1-0.2-0.2
		c-0.1,0.1-0.1,0.2-0.2,0.2c0.1,0.1,0.1,0.1,0.2,0.2C33.1,26.6,33.2,26.6,33.3,26.5 M32.7,22.1L32.7,22.1L32.7,22.1L32.7,22.1z
		 M35.3,17.1L35.3,17.1L35.3,17.1L35.3,17.1z M32.9,31.1L32.9,31.1L32.9,31.1L32.9,31.1z"/>
	<path class="st0" d="M125,28.3c-0.5,1.2,0,2.1,0.6,2.7c0.8,1,1.9,1.4,3.3,1.1c1.1-0.3,2.2-0.5,3.2-0.9c0.5-0.2,1-0.5,1.5-0.7
		c0.6,0.1,0.8,0.4,1,0.8c1.1,2.2,1.3,2.5,1.1,4.1c-0.8,1-1.9,1.7-3,2.4c-1.1,0.8-2.5,0.9-3.8,1.3c-0.1,0-0.4-0.1-0.6-0.1
		c-2.3,0.1-4.4-0.7-6.4-1.9c-0.1-0.1-0.2-0.1-0.3-0.2c-2.2-0.9-3.1-2.8-3.8-4.9c-0.7-2.2-0.6-4.5-0.3-6.7c0.2-1.6,0.8-3.2,1.2-4.7
		c0.1-0.4,0.3-0.8,0.5-1.1c0.2-0.5,0.5-1,0.8-1.5c0.2-0.4,0.4-0.9,0.8-1.2c0.3-0.3,0.6-0.6,0.8-1c0.6-1.1,1.6-1.8,2.6-2.5
		c0.4-0.3,0.8-0.5,1.2-0.8c0.5-0.3,1-0.4,1.6-0.5c1.7-0.2,3.3,0.3,4.9,0.9c0.5,0.2,0.9,0.3,1.4,0.5c0.8,0.3,1.6,0.6,2.2,1.2
		c0.1,0.2,0.3,0.3,0.5,0.4c1,0.5,1.6,1.4,2.1,2.3c0.1,0.2,0.2,0.5,0.3,0.8c0.1,1.1,0.2,2.3,0,3.4c-0.2,0.8-0.6,1.6-0.9,2.3
		c-0.2,0.4-0.5,0.8-0.7,1.2c-0.7,0.6-1.4,1.2-2,1.8c-0.8,0.4-1.5,0.8-2.3,1.1c-0.5,0.2-1.1,0.3-1.6,0.4c-1,0.1-2,0.1-3,0.2
		c-0.3,0-0.7-0.1-1-0.1C126.1,28.3,125.6,28.3,125,28.3 M119.6,27.4c0.1-0.1,0.1-0.1,0.2-0.2c0,0,0.1-0.1,0.1-0.1c0,0,0,0-0.1,0.1
		C119.7,27.3,119.7,27.4,119.6,27.4c0,0.1-0.1,0.1-0.1,0.1C119.5,27.5,119.5,27.5,119.6,27.4 M123.6,28.1l-0.2,0.2
		c-0.1,0.1-0.1,0.1-0.2,0.2l-0.2,0.2c0,0-0.1,0.1-0.1,0.1c0-0.1,0-0.1,0.1-0.2c0.1-0.1,0.1-0.1,0.2-0.2c0.1-0.1,0.1-0.1,0.2-0.2
		C123.4,28.2,123.5,28.2,123.6,28.1C123.6,28.1,123.6,28,123.6,28.1C123.6,28,123.6,28.1,123.6,28.1 M121,23.7
		c0.1-0.1,0.1-0.1,0.2-0.2c0.4,0,0.5-0.2,0.5-0.6c-0.2,0.2-0.3,0.4-0.5,0.6C121.2,23.6,121.1,23.6,121,23.7c0,0.1-0.1,0.1-0.1,0.1
		C121,23.8,121,23.7,121,23.7 M123.1,23.9c0,0,0.1-0.1,0.1-0.1C123.2,23.8,123.2,23.9,123.1,23.9c0,0.1-0.1,0.2-0.2,0.2
		c0,0-0.1,0.1-0.1,0.1c0,0,0-0.1,0.1-0.1C123,24,123.1,24,123.1,23.9 M120.8,21.6c0.1-0.1,0.3-0.1,0.4-0.2c0,0-0.1-0.1-0.1-0.1
		C121,21.4,120.9,21.5,120.8,21.6c0,0.1-0.1,0.1-0.1,0.1C120.8,21.7,120.8,21.6,120.8,21.6 M134.9,19.1c-0.1,0.1-0.2,0.2-0.3,0.3
		c0.1,0,0.1,0.1,0.2,0.1C134.8,19.3,134.8,19.2,134.9,19.1C134.9,19,135,19,134.9,19.1C135,19,134.9,19.1,134.9,19.1 M121.9,25.1
		c0.3,0,0.6-0.1,0.5-0.6C122.2,24.8,122.1,25,121.9,25.1C121.9,25.2,121.8,25.2,121.9,25.1C121.8,25.2,121.8,25.2,121.9,25.1
		 M135.3,21c-0.2,0.1-0.5,0.3-0.6,0.6C135.2,21.5,135.3,21.3,135.3,21c0-0.1,0.1-0.2,0.2-0.2c0.6-0.1,0.6-0.7,0.9-1
		c-0.5,0.1-0.7,0.5-0.9,1C135.5,20.8,135.4,20.9,135.3,21 M134.1,17.6l-1.2,1.1C133.4,18.5,133.9,18.3,134.1,17.6
		C134.1,17.6,134.1,17.5,134.1,17.6C134.1,17.5,134.1,17.6,134.1,17.6 M128.1,23.6c0.1,0,0.2-0.1,0.4-0.2c0.1-0.1,0.3-0.2,0.4-0.3
		c1.5-0.9,2.3-2.1,2.2-3.9c-0.1-1-0.3-1.3-1.3-1.6c-1.4,0.5-2.1,1.6-2.9,2.8c-0.5,0.9-0.9,1.8-1.2,2.7c0,0.1,0,0.1,0,0.3
		c0.1,0.2,0.3,0.4,0.5,0.5C126.8,23.8,127.4,23.8,128.1,23.6 M133,23.2c-0.4,0.4-0.6,0.6-0.8,0.8C132.6,23.9,132.9,23.8,133,23.2
		 M133.5,20.4c0.1,0,0.1,0.1,0.2,0.1c0.2-0.2,0.5-0.3,0.6-0.8C133.9,20,133.7,20.2,133.5,20.4 M123.6,26c-0.3,0-0.6,0-0.8,0.5
		C123.1,26.3,123.3,26.2,123.6,26 M122.9,22c0,0-0.1-0.1-0.1-0.1c-0.2,0.1-0.4,0.2-0.5,0.3c0.1,0.1,0.1,0.1,0.2,0.2
		C122.6,22.3,122.8,22.2,122.9,22 M120.7,26.3C120.7,26.3,120.7,26.3,120.7,26.3l0.2,0c0,0,0,0,0,0
		C120.9,26.3,120.8,26.3,120.7,26.3 M124.7,24.6L124.7,24.6L124.7,24.6L124.7,24.6z M123.8,23.2L123.8,23.2L123.8,23.2L123.8,23.2z
		 M134.4,21.9L134.4,21.9L134.4,21.9L134.4,21.9z M136.3,22.3L136.3,22.3L136.3,22.3L136.3,22.3z"/>
	<path class="st0" d="M137.6,35.5c0.2-1.8,0.4-3.6,1.5-5.1h1.1c0.6,0.6,1.4,1,2.2,1.2c0.3,0.1,0.6,0.3,0.8,0.4
		c1.2,0.6,2.4,1,3.8,0.9c0.9-0.1,1.6-0.4,2.1-1.2c0-0.6-0.4-0.9-0.9-1.1c-1-0.4-2-0.9-2.9-1.3c-0.8-0.4-1.6-0.7-2.4-1
		c-0.3-0.1-0.5-0.3-0.7-0.4c-0.7-0.6-1.5-1.2-2.2-1.9c-0.5-0.5-0.7-1.1-0.9-1.8c-0.2-1.2-0.2-2.5,0-3.7c0.5-2.1,1.4-4,2.8-5.6
		c0.4-0.4,0.7-0.8,1.1-1.3c0.3-0.2,0.7-0.4,1.1-0.7c1.2-0.6,2.4-1,3.7-0.8c2.1,0.2,4,0.9,5.8,1.7c0.7,0.3,1.5,0.7,2.1,1.1
		c0.8,0.5,1.6,1,2.1,1.8c0.3,0.5,0.6,1,0.6,1.6c0,0.3,0.1,0.7,0.2,1c-0.5,1.5-0.8,2.9-2.2,4c-0.7,0.3-1.6,0.2-2.6,0.2
		c-0.7,0-1.3,0-2,0c-0.3,0-0.6-0.1-0.8-0.2c-0.3-0.6-0.1-1.1,0.1-1.6c0.3-0.7,0.4-1.4,0.3-2.2c-0.2-0.8-0.5-1.3-1.1-1.7
		c-0.8-0.1-1.4,0.3-1.9,0.8c-0.8,0.8-1.4,1.7-1.6,2.8c-0.3,1.1-0.1,1.8,0.9,2.5c0.5,0.3,1,0.6,1.5,0.9c1.3,0.5,2.6,1.1,3.9,1.5
		c1.6,0.5,2.4,1.8,3.4,2.9c0.1,1,0.2,2,0.3,3c-0.3,1.5-1.3,2.6-2,3.9c-0.2,0.3-0.4,0.6-0.7,0.8c-1.6,1.2-3.3,2.2-5.4,2.3
		c-0.7,0-1.4,0.2-2.1,0.2c-0.5,0-1,0-1.5-0.3c-0.2-0.1-0.5-0.1-0.8-0.2c-0.5-0.1-1-0.2-1.4-0.3c-0.6-0.2-1.1-0.3-1.7-0.5
		c-0.5-0.2-0.9-0.4-1.4-0.7c-0.4-0.2-0.8-0.4-1.2-0.7C138.4,36.2,138,35.9,137.6,35.5 M147.3,18.3C147.2,18.3,147.2,18.3,147.3,18.3
		C147.2,18.3,147.2,18.3,147.3,18.3c0-0.1,0.1-0.2,0.2-0.2c0.6,0,0.6-0.5,0.8-0.8c0,0,0.1-0.1,0.1-0.1c0,0,0,0.1-0.1,0.1h-0.5
		c-0.1,0.3-0.2,0.6-0.4,0.8C147.4,18.1,147.3,18.2,147.3,18.3 M146.4,19.1c-0.1,0.1-0.1,0.1-0.2,0.2c-0.1,0.1-0.2,0.2-0.3,0.3
		c0.1,0,0.1,0.1,0.2,0.1c0-0.1,0.1-0.3,0.1-0.4C146.3,19.2,146.3,19.1,146.4,19.1C146.4,19,146.5,19,146.4,19.1
		C146.5,19,146.5,19.1,146.4,19.1 M146.4,16.8c0,0-0.1,0.1-0.1,0.1C146.4,16.9,146.4,16.8,146.4,16.8c0-0.1,0.1-0.2,0.2-0.2
		c0,0,0.1-0.1,0.1-0.1c0,0.1-0.1,0.1-0.1,0.2C146.6,16.6,146.5,16.7,146.4,16.8 M144.7,13.8C144.8,13.8,144.9,13.8,144.7,13.8
		C144.9,13.7,144.8,13.8,144.7,13.8C144.7,13.9,144.7,13.9,144.7,13.8C144.7,13.9,144.7,13.9,144.7,13.8 M144.3,19.1
		c0.3-0.1,0.5-0.3,0.4-0.6c0.5-0.2,1-0.4,1-1c0,0,0.1-0.1,0.1-0.1c0,0,0,0.1-0.1,0.1c-0.2,0.2-0.5,0.3-0.7,0.5
		c-0.1,0.1-0.2,0.4-0.3,0.6C144.4,18.5,144.3,18.8,144.3,19.1C144.3,19.1,144.3,19.1,144.3,19.1C144.2,19.1,144.3,19.1,144.3,19.1
		 M145.4,15.5c-0.4,0-0.5,0.1-0.5,0.6C145.1,15.9,145.2,15.7,145.4,15.5c0-0.1,0-0.1,0.1-0.1C145.4,15.4,145.4,15.5,145.4,15.5
		 M145.1,20.7c0-0.1-0.1-0.1-0.1-0.2c-0.3,0.2-0.5,0.3-0.7,0.5c-0.1,0,0,0.2-0.1,0.5C144.6,21.2,144.9,20.9,145.1,20.7 M140.8,20.1
		c0,0,0.1,0.1,0.1,0.1c0.1-0.1,0.2-0.2,0.3-0.4c0,0-0.1-0.1-0.1-0.1C141,19.9,140.9,20,140.8,20.1 M144.2,16.6c0,0,0.1,0.1,0.1,0.1
		c0.1-0.1,0.1-0.2,0.2-0.2l-0.1-0.1C144.3,16.5,144.3,16.6,144.2,16.6 M143.3,19.8C143.4,19.8,143.4,19.9,143.3,19.8
		c0.2,0,0.2,0,0.3-0.1c0,0-0.1-0.1-0.1-0.1L143.3,19.8z M142.2,20.8c0,0,0.1,0.1,0.1,0.1c0.1-0.1,0.2-0.1,0.2-0.2
		c0,0-0.1-0.1-0.1-0.1L142.2,20.8z M140.5,22.7c-0.1,0.1-0.1,0.1-0.1,0.1c0,0.1,0,0.1,0,0.2C140.5,22.9,140.5,22.8,140.5,22.7
		 M142.2,23.3C142.1,23.3,142.1,23.3,142.2,23.3l-0.1,0.2c0,0,0.1,0,0.1,0C142.2,23.5,142.2,23.4,142.2,23.3 M141.1,24.4
		C141.1,24.4,141.1,24.4,141.1,24.4l0.2,0.1c0,0,0,0,0-0.1H141.1z M143.8,21.7L143.8,21.7L143.8,21.7L143.8,21.7z M142.8,15.8
		L142.8,15.8L142.8,15.8L142.8,15.8z M142.1,18.7L142.1,18.7L142.1,18.7L142.1,18.7z"/>
	<path class="st1" d="M166.7,0.8c0.1,0.1,0.2,0.2,0.3,0.2c1.1,0.3,2.2,0.5,3.3,0.9c0.6,0.2,1.2,0.5,1.5,1.1V4
		c-0.6,1.9-1.1,3.6-1.7,5.3c0.2,0.2,0.3,0.4,0.5,0.7h3.3c0.6,0.4,0.7,1,0.8,1.6c0.1,1.5-0.2,3-0.4,4.5c0,0.2-0.2,0.4-0.3,0.6
		c-0.9,0.1-1.8,0.2-2.6,0.3c-0.4,0-0.8-0.1-1.2-0.1c-0.4,0-0.9,0.1-1.6,0.2c-0.1,0.3-0.4,0.6-0.5,0.9c-0.4,1.9-0.8,3.9-1.1,5.8
		c-0.1,0.5-0.1,1-0.2,1.4c-0.2,0.9,0,1.7,0,2.6c0,0.2,0.1,0.5,0.2,0.7c0.7,0.9,1.3,2,2.6,2.3c0.5,0.6,0.5,1.3,0.2,1.9
		c-0.5,0.9-1.1,1.9-1.7,2.8c-0.3,0.4-0.6,0.7-1,1.1c-0.5,0.4-0.6,0.4-1.8,0.4c-0.7-0.4-1.5-0.8-2.3-1.3c-2.6-1.6-3.8-4-4.2-7
		c-0.2-1.3,0-2.7,0.2-4c0.2-1.5,0.4-3,0.7-4.5c0.1-0.8,0.4-1.5,0.6-2.3c-0.1-0.3-0.2-0.6-0.3-0.9c-0.6-0.2-1.3,0-1.7-0.7
		c-0.1-0.7-0.2-1.5-0.2-2.3c0-0.8,0.2-1.6,0.2-2.4c0-0.3,0.2-0.6,0.3-0.8c0.7-0.3,1.4-0.4,2.1-0.4c0.6,0,0.6,0,1.2-0.5
		c0.2-1,0.5-2.1,0.9-3.1c0.5-1.1,0.7-2.4,1.1-3.6c0.3-0.9,0.6-1.8,1.4-2.3H166.7z M166.7,8.9c-0.1,0.1-0.1,0.1-0.2,0.2
		c0,0-0.1,0.1-0.1,0.1c0,0,0-0.1,0.1-0.1C166.5,9.1,166.6,9,166.7,8.9c0-0.1,0.1-0.2,0.2-0.2c0.1-0.1,0.1-0.1,0.2-0.2
		c0.1-0.1,0.1-0.1,0.2-0.2c0.1-0.1,0.1-0.1,0.2-0.2c0,0,0.1-0.1,0.1-0.1c0,0,0,0-0.1,0.1c-0.1,0.1-0.1,0.1-0.2,0.2
		c-0.1,0.1-0.1,0.1-0.2,0.2c-0.1,0.1-0.1,0.1-0.2,0.2C166.9,8.8,166.8,8.9,166.7,8.9 M164.2,16.1l-0.2,0.2c-0.1,0.1-0.1,0.1-0.2,0.2
		c-0.1,0.1-0.1,0.1-0.2,0.2c-0.1,0.1-0.1,0.1-0.2,0.2c-0.1,0.1-0.1,0.1-0.2,0.2c-0.1,0.1-0.1,0.1-0.2,0.2c-0.1,0.1-0.1,0.1-0.2,0.2
		c0,0-0.1,0.1-0.1,0.1c0,0,0-0.1,0.1-0.1c0.1-0.1,0.1-0.1,0.2-0.2c0.1-0.1,0.1-0.1,0.2-0.2c0.1-0.1,0.1-0.1,0.2-0.2
		c0.1-0.1,0.1-0.1,0.2-0.2c0.1-0.1,0.1-0.1,0.2-0.2c0.1-0.1,0.1-0.1,0.2-0.2C164,16.2,164.1,16.1,164.2,16.1c0-0.1,0.1-0.2,0.2-0.2
		c0.1-0.1,0.1-0.1,0.2-0.2c0.1-0.1,0.1-0.1,0.2-0.2c0.1-0.1,0.1-0.1,0.2-0.2c0.4,0,0.6-0.2,0.6-0.6c0,0,0.1-0.1,0.1-0.1
		c0,0,0,0-0.1,0.1c-0.3,0.1-0.5,0.3-0.6,0.6c-0.1,0.1-0.1,0.1-0.2,0.2c-0.1,0.1-0.1,0.1-0.2,0.2l-0.2,0.2
		C164.3,15.9,164.3,16,164.2,16.1 M167.5,15l0.2-0.2c0,0,0.1-0.1,0.1-0.1c0,0,0,0.1-0.1,0.1C167.7,14.9,167.6,15,167.5,15
		c0,0.1-0.1,0.2-0.2,0.2c0,0-0.1,0.1-0.1,0.1c0,0,0-0.1,0.1-0.1C167.4,15.1,167.5,15.1,167.5,15 M162.9,15c0.1-0.1,0.1-0.1,0.2-0.2
		c0.1-0.1,0.1-0.1,0.2-0.2c0.3,0,0.4-0.1,0.4-0.4c0,0,0.1-0.1,0.1-0.1c0,0,0,0.1-0.1,0.1c-0.1,0.1-0.3,0.3-0.4,0.4
		c-0.1,0.1-0.1,0.1-0.2,0.2C163.1,14.9,163,15,162.9,15c0,0.1-0.1,0.2-0.2,0.2c0,0-0.1,0.1-0.1,0.1c0,0,0,0,0.1-0.1L162.9,15z
		 M163.3,10c0.1-0.1,0.1-0.1,0.2-0.2c0.4,0,0.6-0.1,0.7-0.7c-0.3,0.4-0.5,0.6-0.6,0.8C163.5,9.9,163.4,9.9,163.3,10
		C163.3,10,163.3,10,163.3,10C163.3,10.1,163.3,10,163.3,10 M167.9,10C168,9.9,168,9.9,167.9,10C168,9.9,168,10,167.9,10
		c0,0.1-0.1,0.2-0.2,0.2c-0.1,0.1-0.1,0.1,0,0c0,0.1,0,0,0-0.1C167.8,10.1,167.9,10,167.9,10 M164.6,8.7
		C164.6,8.7,164.7,8.6,164.6,8.7C164.7,8.7,164.7,8.7,164.6,8.7C164.6,8.8,164.5,8.8,164.6,8.7C164.5,8.8,164.6,8.7,164.6,8.7
		 M162.3,13.3c0.1-0.1,0.1-0.1,0.2-0.2c0.1-0.1,0.1-0.1,0.2-0.2c0.5-0.4,1.2-0.6,1.5-1.4c-1.2,0.7-1.2,0.7-1.4,1.4
		c-0.1,0.1-0.1,0.1-0.2,0.2C162.5,13.2,162.4,13.3,162.3,13.3c0,0.1-0.1,0.2-0.2,0.2c-0.2,0.2-0.4,0.4-0.6,0.6c0,0-0.1,0.1-0.1,0.1
		c0,0,0-0.1,0.1-0.1c0.4,0,0.6-0.2,0.6-0.6C162.1,13.5,162.2,13.4,162.3,13.3 M170.5,12.1C170.5,12,170.6,12,170.5,12.1
		C170.5,12,170.5,12,170.5,12.1C170.5,12.1,170.4,12.2,170.5,12.1C170.4,12.2,170.4,12.1,170.5,12.1 M165.2,10.4
		C165.3,10.4,165.3,10.3,165.2,10.4C165.3,10.3,165.3,10.4,165.2,10.4c0,0.1-0.1,0.2-0.2,0.2c-0.2,0.1-0.5,0.2-0.4,0.5
		c0.1-0.1,0.2-0.1,0.2-0.2c0.1-0.1,0.1-0.3,0.1-0.4C165.1,10.5,165.2,10.5,165.2,10.4 M169,13.6c-0.1,0.1-0.1,0.1-0.2,0.2
		c-0.1,0.1-0.1,0.1-0.2,0.2c0,0-0.1,0.1-0.1,0.1c0,0,0-0.1,0.1-0.1c0.1-0.1,0.1-0.1,0.2-0.2C168.9,13.7,168.9,13.6,169,13.6
		c0-0.1,0.1-0.2,0.2-0.2c0.5,0,0.7-0.3,0.7-0.8c-0.2,0.3-0.4,0.5-0.7,0.8C169.2,13.4,169.1,13.5,169,13.6 M166.7,18.1
		C166.7,18.1,166.8,18.1,166.7,18.1C166.8,18.1,166.8,18.1,166.7,18.1C166.7,18.2,166.6,18.2,166.7,18.1
		C166.6,18.2,166.7,18.2,166.7,18.1 M164.2,18.4c-0.1,0.1-0.1,0.1-0.2,0.2c0,0-0.1,0.1-0.1,0.1c0,0,0-0.1,0.1-0.1
		C164,18.5,164.1,18.4,164.2,18.4c0-0.1,0.1-0.1,0.1-0.1C164.3,18.3,164.2,18.3,164.2,18.4 M166.5,6.9c-0.2,0.2-0.4,0.4-0.6,0.6
		c-0.2,0.2-0.4,0.3-0.6,0.5c0.5,0.1,0.5-0.2,0.6-0.5C166.2,7.4,166.5,7.3,166.5,6.9C166.5,6.8,166.6,6.8,166.5,6.9
		C166.6,6.8,166.5,6.8,166.5,6.9 M165.7,16.9c-0.3,0.1-0.5,0.3-0.6,0.8C165.4,17.5,165.7,17.3,165.7,16.9c0-0.1,0.1-0.2,0.2-0.2
		c0.3-0.2,0.8-0.2,0.8-0.8c-0.4,0.2-0.8,0.3-0.8,0.8C165.8,16.8,165.7,16.8,165.7,16.9 M166.7,13.6c-0.3,0.1-0.6,0.3-0.6,0.8
		C166.5,14.2,166.7,13.9,166.7,13.6c0.1-0.1,0.1-0.2,0.2-0.2c0.2-0.1,0.5-0.2,0.7-0.4c0.1-0.1,0-0.3,0.1-0.6c-0.4,0.4-0.8,0.6-0.8,1
		C166.9,13.4,166.8,13.5,166.7,13.6 M169.7,10.6c-0.6,0.5-1.1,1-1.7,1.5C168.8,11.9,169.3,11.3,169.7,10.6c0.1-0.1,0.2-0.2,0.4-0.2
		c0,0-0.1-0.1-0.1-0.1C169.8,10.4,169.7,10.5,169.7,10.6 M165.5,12.1c-0.2,0.2-0.3,0.5-0.5,0.7c-0.2,0.2-0.5,0.3-0.3,0.8
		c0.7-0.7,1.3-1.3,1.9-2c0,0-0.1-0.1-0.1-0.1C166.2,11.6,165.8,11.9,165.5,12.1 M167.6,30.7c-0.6,0.5-1,1-1.2,1.7
		C167,32.1,167.4,31.6,167.6,30.7 M165.3,31c0.4-0.2,0.4-0.2,0.3-0.6C165.5,30.7,165.4,30.9,165.3,31 M165,31.6c-0.2,0-0.3,0-0.4,0
		c-0.1,0-0.1,0.1-0.2,0.2c0,0,0.1,0.1,0.1,0.1C164.7,31.9,164.8,31.8,165,31.6 M168.8,6.6c0,0,0.1,0.1,0.1,0.1
		c0.1-0.1,0.2-0.1,0.4-0.2c0,0,0-0.1-0.1-0.1C169.1,6.5,169,6.5,168.8,6.6 M162,16.2c0-0.1-0.1-0.1-0.1-0.2
		c-0.1,0.1-0.2,0.2-0.3,0.3c0,0,0.1,0.1,0.1,0.1C161.8,16.4,161.9,16.3,162,16.2 M161.7,18.9c-0.1-0.1-0.2-0.1-0.2-0.2
		c-0.1,0.1-0.1,0.2-0.2,0.2c0.1,0.1,0.1,0.1,0.2,0.2C161.6,19,161.7,18.9,161.7,18.9 M160.5,13h-0.2v0.1L160.5,13L160.5,13z
		 M162.6,10.9C162.5,10.9,162.5,10.9,162.6,10.9C162.5,10.9,162.5,10.9,162.6,10.9 M167.6,5.6L167.6,5.6L167.6,5.6L167.6,5.6z
		 M167,11L167,11L167,11L167,11z M169.9,14.9L169.9,14.9L169.9,14.9L169.9,14.9z M162.4,24.8L162.4,24.8L162.4,24.8L162.4,24.8z
		 M164.7,29.4L164.7,29.4L164.7,29.4L164.7,29.4z M164.3,29.8L164.3,29.8L164.3,29.8L164.3,29.8z"/>
	<path class="st1" d="M89.2,28c0.2-0.6,0.5-1.2,0.7-1.8c0.4-1.1,0.8-2.2,1.1-3.3c0.1-0.4,0.1-0.8,0.2-1.1c0.2-0.7,0.5-1.3,0.7-1.9
		c0.1-0.2,0.2-0.4,0.2-0.6c0.4-1.2,0.7-2.5,1.1-3.7c0.2-0.5,0.4-1,0.5-1.5c0.4-1.3,0.8-2.6,1.2-3.9c0.3-0.9,0.6-1.8,0.9-2.7
		c0.2-0.6,0.3-1.1,0.5-1.7c0.1-0.2,0.2-0.4,0.3-0.7c0.3-0.7,0.6-1.4,1-2.4c0.2-0.3,0.8-0.4,1.5-0.2c1.5,0.4,3,0.8,4.5,1.4
		c0.8,0.3,1.2,0.8,1.1,1.7c-0.1,1.3-0.3,2.6-0.4,3.8c-0.1,0.4-0.1,0.9-0.2,1.3c-0.1,0.7-0.1,1.5-0.2,2.2c-0.1,0.8-0.1,1.6-0.2,2.4
		c-0.1,1.1-0.2,2.2-0.3,3.3c-0.1,0.7-0.1,1.5-0.1,2.2c0,0.7,0,1.4-0.1,2.1c-0.1,0.6-0.1,1.2,0,1.7c0.2,0.9-0.1,1.9,0,2.8
		c0,0.2,0.1,0.4,0.2,0.9c0.2-0.5,0.3-0.7,0.4-0.9c0.5-1.7,1-3.4,1.6-5.1c0.4-1.1,0.7-2.2,1.1-3.3c0.8-2.1,1.4-4.3,2.1-6.4
		c1-3.1,2.1-6.2,3.3-9.2c0.2-0.5,0.4-1.1,1-1.5c0.8-0.2,1.6,0.2,2.3,0.5c1,0.4,2,1,2.9,1.6c0.2,0.1,0.5,0.3,0.7,0.5
		c0.3,0.3,0.5,0.7,0.4,1.1c-0.2,0.8-0.4,1.5-0.7,2.3c-0.7,1.5-1.4,3.1-1.8,4.8c0,0.1,0,0.2-0.1,0.3c-1.1,2.3-1.8,4.7-2.7,7.1
		c-0.5,1.3-0.9,2.6-1.4,3.9c-0.1,0.4-0.3,0.7-0.5,1c-0.1,0.1-0.2,0.2-0.2,0.4c-0.1,1.2-1,2.2-1.2,3.4c-0.2,0.9-0.7,1.8-1.1,2.7
		c-0.5,1.2-1,2.4-1.5,3.5c-0.3,0.6-0.6,1.2-1,1.8c-0.6,0-1.2,0.1-1.8,0.1c-2.8-0.8-5.6-1.8-7.7-3.8c-0.6-1.7-0.5-3.4-0.5-5
		c0-1.9,0-3.8,0-5.7c0-0.3,0-0.6-0.2-1c-0.4,1.1-0.9,2.2-1.3,3.4c-0.3,0.9-0.6,1.8-0.8,2.7c-0.2,0.7-0.4,1.4-0.7,2.1
		c-0.3,0.7-0.4,1.4-0.6,2.1c-0.1,0.3-0.2,0.5-0.3,0.8c-0.2,0.6-0.4,1.2-0.6,1.8c-0.4,0.9-0.7,1.8-1.4,2.5c-0.6,0.1-1.1,0.1-1.7,0.2
		c-0.8-0.3-1.7-0.5-2.6-0.8c-1.4-0.4-2.6-1.2-3.8-1.9c-0.3-0.2-0.6-0.6-0.8-0.9c-0.5-0.8-0.7-1.7-0.7-2.6c0-0.7-0.1-1.4-0.2-2.1
		c0-0.2,0-0.5,0-0.7c0-1,0.1-2.1,0.1-3.1c0-0.2-0.1-0.5-0.1-0.7c0-1,0.1-1.9,0.1-2.9c0.1-1.7,0.1-3.4,0.2-5.1
		c0.1-1.8,0.3-3.5,0.4-5.3c0.1-1.5,0.3-3,0.4-4.4c0-0.2,0.1-0.4,0.2-0.6c0.1-0.4,0.1-0.9,0.1-1.3c0-0.8,0.3-1.5,0.4-2.1
		c0.7-0.7,1.4-0.6,2.1-0.5c1.1,0.2,2.1,0.4,3.2,0.6c0.9,0.1,1.6,0.5,2.3,1.1c0,0.5,0,1,0,1.5c-0.2,1.7-0.4,3.5-0.5,5.2
		c-0.1,0.8-0.3,1.6-0.1,2.5c0,0.1,0,0.1,0,0.2c-0.4,1.4-0.3,2.9-0.4,4.4c0,0.1,0,0.3-0.1,0.4c-0.2,1-0.3,1.9-0.3,2.9
		c0,0.5-0.2,1-0.2,1.5c0,1-0.1,2-0.1,3c0,0.6-0.1,1.2-0.2,1.9C88.8,27.3,88.9,27.6,89.2,28 M106.1,32.6
		C106.1,32.7,106,32.7,106.1,32.6C106,32.7,106.1,32.7,106.1,32.6l0.1-0.2C106.2,32.5,106.1,32.6,106.1,32.6 M98.1,15.2
		c0.1-0.1,0.1-0.1,0.2-0.2c0,0,0.1-0.1,0.1-0.1c0,0,0,0-0.1,0.1C98.3,15.1,98.2,15.2,98.1,15.2c0,0.1-0.1,0.2-0.2,0.2
		c0,0-0.1,0.1-0.1,0.1c0,0,0.1-0.1,0.1-0.2C98,15.4,98.1,15.3,98.1,15.2 M99,16.7C98.9,16.7,98.9,16.8,99,16.7
		C98.9,16.8,98.9,16.7,99,16.7c0-0.1,0.1-0.1,0.1-0.1C99,16.6,99,16.7,99,16.7 M100.6,12.7C100.7,12.7,100.7,12.6,100.6,12.7
		C100.7,12.6,100.7,12.7,100.6,12.7c0,0.1-0.1,0.2-0.2,0.2c0,0-0.1,0.1-0.1,0.1c0,0,0-0.1,0.1-0.1C100.5,12.8,100.6,12.8,100.6,12.7
		 M111.5,13.3c0.1-0.1,0.1-0.1,0.2-0.2c0,0,0.1-0.1,0.1-0.1c0,0,0,0.1-0.1,0.1C111.7,13.2,111.6,13.3,111.5,13.3
		C111.5,13.4,111.5,13.4,111.5,13.3C111.5,13.4,111.5,13.4,111.5,13.3 M96.4,14.6C96.5,14.5,96.5,14.5,96.4,14.6
		C96.5,14.5,96.5,14.6,96.4,14.6c0,0.1-0.1,0.1-0.1,0.1C96.4,14.7,96.4,14.6,96.4,14.6 M97.3,13.8c0,0-0.1,0.1-0.1,0.1
		C97.2,13.8,97.3,13.8,97.3,13.8C97.3,13.7,97.4,13.7,97.3,13.8C97.4,13.7,97.3,13.7,97.3,13.8 M84.9,21.5c0,0,0.1-0.1,0.1-0.1
		C85,21.4,85,21.5,84.9,21.5c0,0.1-0.1,0.1-0.1,0.1C84.9,21.6,84.9,21.5,84.9,21.5 M97.3,18.4c0.1-0.1,0.1-0.1,0.2-0.2
		c0.1-0.1,0.3-0.1,0.4-0.2c0,0-0.1-0.1-0.1-0.1c-0.1,0.1-0.2,0.2-0.3,0.4C97.5,18.2,97.4,18.3,97.3,18.4c0,0.1-0.1,0.1-0.1,0.1
		C97.2,18.4,97.3,18.4,97.3,18.4 M86,18.1C86,18.1,86,18.1,86,18.1C86,18.1,86,18.1,86,18.1c0,0.1,0,0.1-0.1,0.2
		C85.9,18.3,85.9,18.2,86,18.1 M84.7,33.2l0.3-0.1c0,0,0-0.1-0.1-0.1C84.9,33.1,84.8,33.2,84.7,33.2c0,0.1,0,0.1-0.1,0.1
		C84.7,33.3,84.7,33.3,84.7,33.2 M100,15.7c-0.2,0.1-0.4,0.2-0.4,0.5C100,16.1,100,15.9,100,15.7c0-0.1,0-0.1,0.1-0.2
		C100.1,15.6,100.1,15.6,100,15.7 M99.2,14.2c0.3-0.2,0.6-0.4,0.9-0.6C99.6,13.6,99.2,13.7,99.2,14.2c0,0.1,0,0.1-0.1,0.2
		C99.1,14.3,99.1,14.2,99.2,14.2 M85.3,9.3c0,0.1,0.1,0.1,0.1,0.2c0.2-0.1,0.3-0.3,0.5-0.4c0,0-0.1-0.1-0.1-0.1
		C85.7,9.1,85.5,9.2,85.3,9.3 M87.8,11.8c0,0-0.1-0.1-0.1-0.1c-0.1,0.1-0.3,0.3-0.4,0.4c0,0,0.1,0.1,0.1,0.1
		C87.6,12.1,87.7,12,87.8,11.8 M105.5,28.8c-0.1-0.1-0.1-0.1-0.2-0.2c-0.1,0.1-0.2,0.3-0.2,0.4c0,0,0.1,0.1,0.1,0.1
		C105.3,29.1,105.4,29,105.5,28.8 M85.7,14.1c0,0-0.1-0.1-0.1-0.1c-0.1,0.1-0.2,0.2-0.4,0.3c0,0,0.1,0.1,0.1,0.1
		C85.4,14.3,85.5,14.2,85.7,14.1 M85,12.1c0,0,0.1,0.1,0.1,0.1c0.1-0.1,0.2-0.1,0.3-0.2c0,0-0.1-0.1-0.1-0.1
		C85.1,12,85.1,12.1,85,12.1 M110.6,12.2C110.6,12.2,110.6,12.1,110.6,12.2c0-0.1-0.1-0.1-0.1-0.1C110.5,12.2,110.5,12.2,110.6,12.2
		C110.5,12.2,110.6,12.2,110.6,12.2 M85.7,11.6h0.2v-0.1L85.7,11.6L85.7,11.6z M101.2,28.3L101.2,28.3l0.2,0.1c0,0,0,0,0-0.1H101.2z
		 M86.7,31.3c0,0.1-0.1,0.1-0.1,0.1c0,0,0,0,0.1,0.1C86.7,31.4,86.7,31.3,86.7,31.3 M85.6,6.9L85.6,6.9L85.6,6.9L85.6,6.9z
		 M84.6,14.9L84.6,14.9L84.6,14.9L84.6,14.9z M86.7,10.5L86.7,10.5L86.7,10.5L86.7,10.5z M86.5,13.1L86.5,13.1L86.5,13.1L86.5,13.1z
		 M87.1,17L87.1,17L87.1,17L87.1,17z M113.8,8.8L113.8,8.8L113.8,8.8L113.8,8.8z M100.5,17.5L100.5,17.5L100.5,17.5L100.5,17.5z
		 M112.3,14.9L112.3,14.9L112.3,14.9L112.3,14.9z M108.1,28.3L108.1,28.3L108.1,28.3L108.1,28.3z M84.4,29L84.4,29L84.4,29L84.4,29z
		"/>
	<path class="st1" d="M8.9,36.7c-1,0.2-1.9,0.1-2.7-0.2c-1.2-0.4-2.3-0.7-3.5-1.1c-0.7-0.7-0.7-1.6-0.6-2.6c0-0.2,0.1-0.3,0.1-0.5
		c-0.2-2.1,0.6-4.2,0.7-6.3c0-1,0.3-1.9,0.5-2.9c0.1-0.5,0.2-1,0.3-1.5c0.3-1.5,0.7-3,0.8-4.5C4.5,16.1,4.8,15,5,14
		c0.1-0.5,0.1-1,0.2-1.5c0.3-1.4,0.7-2.8,1.1-4.1c0.1-0.5,0.2-1,0.3-1.4c0.1-0.4,0.2-0.8,0.3-1.2c0.3-1,0.7-2,1-2.9
		C7.9,2.5,8,2.3,8,2.1c0.5-0.4,1.1-0.6,1.8-0.4c0.3,0.1,0.7,0.1,0.8,0.1c1.4,0.4,2.6,0.7,3.7,1.1c0.4,0.1,0.9,0.2,1.2,0.8
		c0,0.2,0.1,0.5,0,0.8c-0.4,0.9-0.5,1.9-0.9,2.9c-0.2,0.5-0.4,1-0.4,1.5c-0.2,1.8-1,3.6-1.3,5.4c-0.1,0.8-0.3,1.7-0.5,2.6
		c0.4,0,0.8,0.1,1,0.1c0.9-0.6,1.4-1.4,2-2.1c1.2-1.6,2.4-3.2,3.6-4.8c1.1-1.4,2.2-2.8,3.2-4.2c0.3-0.4,0.6-0.9,0.9-1.4
		c0.2-0.3,0.4-0.6,0.6-0.8c0.3-0.3,0.6-0.7,0.9-1c0.3-0.4,0.6-0.6,1.2-0.8c0.8,0.3,1.6,0.9,2.3,1.5c0.7,0.7,1.4,1.4,2.1,2.2
		c0.3,0.4,0.7,0.7,0.7,1.4c-0.2,0.3-0.4,0.8-0.8,1.2c-0.5,0.6-1.1,1-1.6,1.6c-0.7,0.8-1.4,1.5-2.1,2.3c-1.4,1.5-2.7,3-4.1,4.5
		c-0.8,0.9-1.5,1.7-2.3,2.6c-0.3,0.4-0.7,0.7-1.1,1.1c-0.1,0.7,0.3,1.3,0.6,1.9c0.4,0.6,0.8,1.2,1.1,1.9c0.2,0.5,0.6,0.9,0.9,1.4
		c0.7,1.3,1.5,2.6,2.5,3.8c0.7,1,1.4,2,2.3,2.8c0.3,0.3,0.5,0.6,0.3,1.2c-1.5,1.5-3.3,2.6-5.1,3.7c-1,0.3-1.9-0.1-2.5-0.9
		c-0.7-0.8-1.4-1.7-1.9-2.7c-0.7-1.3-1.3-2.6-1.9-3.9c-0.5-1-0.9-2-1.2-3.1c-0.3-1-0.7-2-1.5-2.8c-1,0-1.4,0.3-1.5,1.2
		c-0.2,1.2-0.5,2.5-0.5,3.7c0,0.3,0,0.6-0.1,0.8c-0.4,1.3-0.4,2.6-0.7,3.9c0,0.2-0.1,0.5,0,0.7C9.5,34.8,9.2,35.7,8.9,36.7
		 M7.7,15.6c0.1-0.1,0.1-0.1,0.2-0.2c0.4,0,0.6-0.2,0.6-0.6c0,0,0.1-0.1,0.1-0.1c0,0,0,0.1-0.1,0.1C8.4,15,8.2,15.2,8,15.4
		C7.9,15.5,7.8,15.6,7.7,15.6c0,0.1-0.1,0.1-0.1,0.1C7.7,15.7,7.7,15.7,7.7,15.6 M10.7,17.3C10.7,17.3,10.8,17.2,10.7,17.3
		C10.8,17.3,10.7,17.3,10.7,17.3c0,0.1-0.1,0.2-0.2,0.2c-0.1,0.1-0.2,0.2-0.3,0.3c0.1,0,0.1,0.1,0.2,0.1c0-0.1,0.1-0.3,0.1-0.4
		C10.5,17.4,10.6,17.4,10.7,17.3 M8.2,12.9c0.1-0.1,0.1-0.1,0.2-0.2c0.1-0.1,0.1-0.1,0.2-0.2c0.2-0.1,0.4-0.3,0.6-0.4
		c-0.4-0.1-0.6,0-0.6,0.4c-0.1,0.1-0.1,0.1-0.2,0.2C8.3,12.8,8.3,12.9,8.2,12.9L8,13.1c-0.1,0.1-0.1,0.1-0.2,0.2l-0.2,0.2
		c0,0,0.1,0,0.1,0.1c0-0.1,0-0.2,0.1-0.3c0.1-0.1,0.1-0.1,0.2-0.2C8,13,8.1,13,8.2,12.9 M9.7,13.8c-0.1,0.1-0.1,0.1-0.2,0.2
		c0,0-0.1,0.1-0.1,0.1c0,0,0-0.1,0.1-0.1C9.5,13.9,9.6,13.8,9.7,13.8C9.7,13.7,9.7,13.7,9.7,13.8C9.7,13.7,9.7,13.7,9.7,13.8
		 M7.3,11.4C7.4,11.4,7.4,11.4,7.3,11.4C7.4,11.4,7.4,11.4,7.3,11.4C7.3,11.5,7.3,11.5,7.3,11.4C7.3,11.5,7.3,11.5,7.3,11.4
		 M12.2,11.3c0,0-0.1,0.1-0.1,0.1C12.1,11.3,12.1,11.3,12.2,11.3C12.2,11.2,12.2,11.2,12.2,11.3C12.2,11.2,12.2,11.2,12.2,11.3
		 M16.1,21.1c0,0,0.1-0.1,0.1-0.1C16.2,21,16.2,21.1,16.1,21.1c0,0.1-0.1,0.1-0.1,0.1C16.1,21.2,16.1,21.1,16.1,21.1 M7.8,22.6
		c-0.1,0.1-0.1,0.1-0.2,0.2c-0.3,0.2-0.5,0.3-0.9,0.6c0.6,0.1,0.8-0.1,0.8-0.6C7.6,22.7,7.7,22.6,7.8,22.6c0-0.1,0.1-0.2,0.2-0.2
		c0,0,0.1-0.1,0.1-0.1c0,0,0,0.1-0.1,0.1C7.9,22.4,7.8,22.5,7.8,22.6 M9.6,18.4C9.7,18.3,9.7,18.3,9.6,18.4
		C9.7,18.3,9.7,18.3,9.6,18.4c0,0.1-0.1,0.2-0.2,0.2c0,0-0.1,0.1-0.1,0.1c0,0,0,0,0.1-0.1C9.5,18.5,9.6,18.4,9.6,18.4 M11.8,18.6
		c-0.1,0.1-0.1,0.1-0.2,0.2c-0.1,0.1-0.1,0.1-0.2,0.2c-0.6,0-0.7,0.5-0.8,0.8L10.4,20c0-0.1,0-0.1,0.1-0.2c0.6,0,0.7-0.5,0.8-0.8
		c0.1-0.1,0.1-0.1,0.2-0.2C11.6,18.7,11.7,18.6,11.8,18.6c0-0.1,0.1-0.1,0.1-0.1C11.8,18.5,11.8,18.6,11.8,18.6 M5.4,22.5
		c0.1-0.1,0.1-0.1,0.2-0.2c0.5,0,0.7-0.3,0.7-0.8c-0.2,0.3-0.4,0.5-0.7,0.8C5.6,22.4,5.5,22.5,5.4,22.5l-0.1,0.2L5.4,22.5z
		 M9.9,11.3c-0.1,0.1-0.2,0.2-0.3,0.3c0.1,0,0.1,0.1,0.2,0.1C9.7,11.5,9.8,11.4,9.9,11.3C9.9,11.2,9.9,11.2,9.9,11.3
		C9.9,11.2,9.9,11.2,9.9,11.3 M12.4,20.2c0.1-0.1,0.3-0.1,0.4-0.2c0,0-0.1-0.1-0.1-0.1C12.6,20,12.5,20.1,12.4,20.2
		c0,0.1-0.1,0.1-0.1,0.1C12.3,20.3,12.3,20.3,12.4,20.2 M17.2,24.7c-0.1,0.1-0.3,0.1-0.4,0.2c0,0,0.1,0.1,0.1,0.1
		C17,24.9,17.1,24.8,17.2,24.7c0-0.1,0-0.1,0.1-0.2C17.3,24.6,17.2,24.6,17.2,24.7 M9.9,15.9c-0.3,0.1-0.4,0.2-0.4,0.5
		C9.8,16.3,9.9,16.1,9.9,15.9l0.2-0.2l0.6-0.2c0-0.1-0.1-0.1-0.1-0.2c-0.1,0.1-0.3,0.3-0.4,0.4C10,15.7,9.9,15.8,9.9,15.9 M8.2,19.9
		c-0.2,0.2-0.4,0.4-0.6,0.6c0,0-0.1,0.1-0.1,0.1c0,0,0,0,0.1-0.1C8,20.5,8.2,20.2,8.2,19.9C8.2,19.8,8.2,19.8,8.2,19.9
		C8.3,19.8,8.2,19.8,8.2,19.9 M8.6,17.1c0.3,0,0.6-0.1,0.5-0.6C8.9,16.7,8.8,16.9,8.6,17.1c0,0.1-0.1,0.2-0.2,0.2
		c-0.6,0.1-0.9,0.5-1,1c-0.3,0.3-0.6,0.6-0.8,0.8c-0.1,0.1-0.2,0.2-0.3,0.3c0.1,0,0.1,0.1,0.2,0.1c0-0.1,0.1-0.3,0.1-0.4
		c0.6,0,0.8-0.3,0.8-0.8c0.3-0.2,0.6-0.3,0.8-0.5c0.1-0.1,0.2-0.3,0.2-0.5C8.4,17.2,8.5,17.2,8.6,17.1 M9.2,21.1
		c0.4,0,0.5-0.2,0.5-0.6C9.5,20.7,9.4,20.9,9.2,21.1c0,0.1,0,0.1-0.1,0.1C9.2,21.2,9.2,21.1,9.2,21.1 M14.4,20.3
		c0.7-0.1,0.8-0.1,0.7-0.7C14.8,19.9,14.6,20.1,14.4,20.3 M21.2,14C21.2,14,21.1,13.9,21.2,14c-0.3,0.2-0.5,0.4-0.7,0.6
		c0,0,0,0,0.1,0.1C20.8,14.4,21,14.2,21.2,14 M15.4,17.2c0.4,0,0.6-0.2,0.6-0.7C15.8,16.7,15.6,16.9,15.4,17.2 M9.7,23.2
		c0,0-0.1-0.1-0.1-0.1c-0.1,0-0.1,0.1-0.2,0.1c0,0.1,0,0.2-0.1,0.3C9.4,23.4,9.5,23.3,9.7,23.2 M9,19.2c0,0-0.1-0.1-0.1-0.1
		c-0.1,0-0.2,0.1-0.2,0.1c0,0.1,0,0.2,0,0.3C8.8,19.4,8.9,19.3,9,19.2 M11.2,14.4c0,0.1,0.1,0.1,0.1,0.2c0.1-0.1,0.2-0.2,0.3-0.3
		c0,0-0.1-0.1-0.1-0.1C11.4,14.3,11.3,14.4,11.2,14.4 M18.5,26c-0.1-0.1-0.2-0.1-0.2-0.2c-0.1,0.1-0.1,0.2-0.2,0.2
		c0.1,0.1,0.1,0.1,0.2,0.2C18.4,26.1,18.5,26.1,18.5,26 M10.2,22.5c0,0-0.1-0.1-0.1-0.1c-0.1,0.1-0.2,0.1-0.2,0.2
		c0,0,0.1,0.1,0.1,0.1C10.1,22.6,10.1,22.6,10.2,22.5 M13.4,19.4c0,0-0.1-0.1-0.1-0.1c-0.1,0.1-0.1,0.2-0.2,0.2c0,0,0.1,0.1,0.1,0.1
		C13.3,19.5,13.3,19.5,13.4,19.4 M15.8,19.1L15.8,19.1L15.8,19.1L15.8,19.1z M6.2,24.3L6.2,24.3L6.2,24.3L6.2,24.3z M8.2,24.3
		L8.2,24.3L8.2,24.3L8.2,24.3z M15.2,24.3L15.2,24.3L15.2,24.3L15.2,24.3z M18.1,23.7L18.1,23.7L18.1,23.7L18.1,23.7z M8.5,21.8
		L8.5,21.8L8.5,21.8L8.5,21.8z M6.9,14.3L6.9,14.3L6.9,14.3L6.9,14.3z M20.2,26.3L20.2,26.3L20.2,26.3L20.2,26.3z"/>
	<path class="st1" d="M72.2,11.9c0.1,0.3,0.3,0.6,0.3,0.7c-0.6,2.6-1.3,5.1-1.7,7.7c-0.2,0.9-0.5,1.7-0.4,2.6c0,0.4-0.2,0.7-0.3,1.1
		c0,0.2-0.2,0.3-0.2,0.5c-0.2,1-0.3,2.1-0.5,3.1c0,0.2,0,0.4-0.1,0.6c-0.5,1.7-0.6,3.5-1.1,5.2c-0.1,0.4-0.1,0.8-0.1,1.1
		c-0.3,1.8-0.9,3.6-1.6,5.3c-0.9,2-2.1,3.7-3.9,5c-0.9,0.7-2,1.1-3.1,1.4c-1.3,0.5-2.7,0.4-4,0.1c-0.4-0.1-0.8-0.1-1.2-0.2
		c-1.3-0.8-2.9-1-4.5-2.2c-0.7-0.8-0.4-1.9,0-3c0.2-0.5,0.4-0.9,0.6-1.4c0.2-0.4,0.4-0.7,1-0.9c1.8,0.9,3.8,1.4,6.4,0.6
		c0.7-0.5,1.8-1.2,2.3-2.6c0.1-0.2,0.1-0.3,0.2-0.5c0.7-0.9,0.8-1.9,1-2.9c0.1-0.3,0.1-0.7,0.2-1c-0.5,0.2-0.5,0.2-0.8,0.7
		c-0.8,0.8-1.4,1.5-2.2,2.3c-0.6,0.3-1.3,0.8-2.1,1.3c-0.7,0.2-1.3,0-1.9-0.2c-1.8-0.6-3.3-1.6-4.4-3.2c-0.2-0.4-0.5-0.7-0.7-1
		c-0.7-1-1.1-2.2-1.1-3.4c0-0.7,0-1.4-0.1-2c0.1-1.3,0.2-2.5,0.3-3.6c0.1-0.6,0.2-1.2,0.3-1.7c0.3-1.4,0.6-2.8,0.9-4.3
		c0.1-0.3,0.1-0.7,0.2-1c0.3-1.1,0.6-2.1,1-3.2c0.3-0.8,0.7-1.6,1.1-2.5c0.5-0.2,1-0.2,1.5,0c1.4,0.6,2.9,1.2,4.4,1.8
		c0.5,0.2,0.7,0.5,0.8,1c-0.3,1.8-1.1,3.5-1.4,5.3c-0.2,1.2-0.7,2.3-0.9,3.5c-0.3,1.5-0.7,3-0.8,4.5c0,0.6-0.2,1.2-0.2,1.9
		c0,0.4,0.1,0.7,0.2,1c0.5,0.2,0.9,0,1.2-0.2c1.5-0.7,2.8-1.7,3.8-3c0.1-0.1,0.1-0.3,0.2-0.3c0.9-0.6,1.1-1.6,1.3-2.5
		c0.2-0.8,0.3-1.6,0.4-2.4c0.1-0.6,0.2-1.2,0.3-1.9c0.1-0.4,0.1-0.8,0.2-1.1c0.6-1.7,0.9-3.5,1.4-5.2c0.3-0.9,0.5-1.9,1.3-2.5
		C68.2,10,70.1,11.2,72.2,11.9 M64.8,30.1c0.1-0.1,0.1-0.1,0.2-0.2c0,0,0.1-0.1,0.1-0.1c0,0,0,0.1-0.1,0.1
		C65,30,64.9,30.1,64.8,30.1c0,0.1-0.1,0.2-0.2,0.2l-0.2,0.2c0,0-0.1,0.1-0.1,0.1c0,0,0-0.1,0.1-0.1c0.1-0.1,0.1-0.1,0.2-0.2
		C64.6,30.2,64.7,30.2,64.8,30.1 M65.4,31.8c0.1-0.1,0.1-0.1,0.2-0.2c0.3,0,0.4-0.1,0.4-0.4c0,0,0.1-0.1,0.1-0.1c0,0,0,0.1-0.1,0.1
		c-0.1,0.1-0.3,0.3-0.4,0.4C65.6,31.7,65.5,31.7,65.4,31.8C65.4,31.8,65.4,31.9,65.4,31.8C65.4,31.9,65.4,31.8,65.4,31.8 M57.4,44.1
		C57.5,44.1,57.5,44.1,57.4,44.1C57.5,44.1,57.5,44.1,57.4,44.1c0,0.1,0,0.1-0.1,0.2C57.4,44.2,57.4,44.2,57.4,44.1 M55.6,29.9
		c-0.5,0.4-1.2,0.6-1.3,1.4C55.5,30.8,55.7,30.6,55.6,29.9 M54.3,29.3c-0.1,0-0.1-0.1-0.2-0.1c-0.2,0.2-0.6,0.4-0.3,1
		C54,29.8,54.2,29.5,54.3,29.3 M57,42c0,0,0.1,0.1,0.1,0.1c0.2-0.1,0.3-0.3,0.5-0.4c0,0-0.1-0.1-0.1-0.1C57.3,41.8,57.2,41.9,57,42
		 M66.2,14.9c0,0-0.1-0.1-0.1-0.1c-0.1,0.1-0.1,0.1-0.2,0.2c0,0,0,0.1,0.1,0.1C66,15.1,66.1,15,66.2,14.9 M63.5,33.7
		c0,0,0.1,0.1,0.1,0.1c0.1-0.1,0.1-0.2,0.2-0.2c0,0-0.1-0.1-0.1-0.1C63.7,33.6,63.6,33.6,63.5,33.7 M55.8,43.4
		c0.1,0,0.1,0.1,0.2,0.1c0.1-0.1,0.1-0.2,0.2-0.3c0,0-0.1-0.1-0.1-0.1C56,43.2,55.9,43.3,55.8,43.4 M62.9,27.2
		c0.1,0,0.1,0.1,0.2,0.1c0-0.1,0.1-0.2,0.1-0.3L63.2,27C63.1,27.1,63,27.2,62.9,27.2 M69.5,18.4C69.5,18.5,69.5,18.5,69.5,18.4
		c0.2,0,0.2,0,0.3-0.1l-0.1-0.1C69.6,18.3,69.5,18.4,69.5,18.4 M68.4,12.6L68.4,12.6L68.4,12.6L68.4,12.6z M53.8,43.2L53.8,43.2
		L53.8,43.2L53.8,43.2z M58,41.4L58,41.4L58,41.4L58,41.4z M50.5,26L50.5,26L50.5,26L50.5,26z M64.3,32.9L64.3,32.9L64.3,32.9
		L64.3,32.9z M53.5,32.1L53.5,32.1L53.5,32.1L53.5,32.1z M67.2,30L67.2,30L67.2,30L67.2,30z"/>
	<path class="st1" d="M31.8,12.7c1.1-0.8,2.1-1.5,3.2-2.3c0.5-0.3,1-0.4,1.5-0.5c1.7-0.3,3.3,0.3,4.9,0.8c0.9,0.3,1.8,0.7,2.7,1.1
		c0.3,0.1,0.6,0.4,0.9,0.7c0.2,0.2,0.4,0.4,0.7,0.5c1.1,0.5,1.6,1.6,2.2,2.6C48,15.6,48,15.8,48,16c0,1,0.2,2.1,0,3.1
		c-0.2,0.9-0.5,1.8-1,2.6c-0.3,0.4-0.5,0.8-0.7,1.1c-0.7,0.6-1.4,1.2-2.1,1.8c-0.8,0.4-1.5,0.7-2.2,1.1c-0.3,0.1-0.7,0.2-1.1,0.3
		c-1.3,0.1-2.6,0.2-3.8,0.3c-0.2,0-0.5-0.1-0.7-0.1c-0.5,0-1,0-1.4,0c-0.4,0.4-0.4,0.7-0.3,1.1c0.3,1.3,1.3,2.5,2.6,2.8
		c0.2,0,0.4,0.1,0.6,0c1.1-0.2,2.1-0.3,3.1-0.8c0.6-0.3,1.3-0.6,1.9-0.8c0.3-0.1,0.6-0.1,1-0.1c0.9,1.5,1.9,2.9,1.6,4.8
		c-1.9,2-4.1,3.4-7.1,3.7c0,0-0.2-0.1-0.4-0.1c-1.2,0.1-2.4-0.2-3.6-0.6c-0.6-0.2-1.2-0.5-1.8-0.8c-0.4-0.2-0.8-0.5-1.3-0.7
		c-1.9-0.8-2.9-2.5-3.6-4.3c-1-2.3-0.8-4.7-0.5-7.1c0.2-1.7,0.7-3.2,1.2-4.8c0.1-0.3,0.3-0.6,0.4-1c0.3-0.7,0.6-1.4,1-2
		c0.3-0.6,0.8-1.1,1.2-1.6c0.3-0.4,0.5-0.7,0.8-1.1C31.8,12.8,31.8,12.7,31.8,12.7 M32.7,16C32.7,16,32.8,16,32.7,16
		C32.8,16,32.8,16,32.7,16c0,0.1-0.1,0.2-0.2,0.2c0,0-0.1,0.1-0.1,0.1c0,0,0,0,0.1-0.1L32.7,16z M45.5,19.4
		C45.5,19.4,45.6,19.3,45.5,19.4C45.6,19.4,45.6,19.4,45.5,19.4C45.5,19.5,45.4,19.5,45.5,19.4C45.4,19.5,45.5,19.4,45.5,19.4
		 M33.5,24.4c0,0,0.1-0.1,0.1-0.1C33.6,24.4,33.6,24.4,33.5,24.4c0,0.1,0,0.1-0.1,0.1C33.5,24.5,33.5,24.5,33.5,24.4 M33.1,18.1
		c0.1-0.1,0.2-0.2,0.4-0.3c0,0-0.1-0.1-0.1-0.1C33.3,17.9,33.2,18,33.1,18.1C33.1,18.2,33.1,18.2,33.1,18.1
		C33.1,18.2,33.1,18.2,33.1,18.1 M35.9,21.8c1-0.2,1.9-0.2,2.8-0.8c1.5-1,2.3-2.2,2.2-4c0-0.9-0.3-1.2-1.2-1.6
		c-0.1,0.1-0.3,0.1-0.5,0.2c-1.1,0.6-1.8,1.6-2.5,2.6c-0.5,0.8-0.9,1.7-1.2,2.6c0,0.1,0,0.2-0.1,0.3C35.6,21.3,35.7,21.5,35.9,21.8
		 M34.9,13.8c0.1,0,0.1,0.1,0.2,0.1c0.1-0.1,0.1-0.2,0.2-0.3c0,0-0.1-0.1-0.1-0.1C35,13.7,34.9,13.7,34.9,13.8 M32.9,29.9
		c0-0.1-0.1-0.1-0.1-0.2c-0.1,0.1-0.1,0.2-0.2,0.2c0,0,0.1,0.1,0.1,0.1C32.7,30,32.8,30,32.9,29.9 M31.6,31.1
		C31.6,31.1,31.6,31,31.6,31.1c-0.2,0-0.2,0.1-0.3,0.2c0,0,0.1,0.1,0.1,0.1C31.5,31.3,31.6,31.2,31.6,31.1 M31.7,24.3
		c-0.1-0.1-0.1-0.1-0.2-0.2c-0.1,0.1-0.1,0.2-0.2,0.2c0.1,0.1,0.1,0.1,0.2,0.2C31.6,24.5,31.7,24.4,31.7,24.3 M31.2,19.9L31.2,19.9
		L31.2,19.9L31.2,19.9z M33.8,14.9L33.8,14.9L33.8,14.9L33.8,14.9z M31.4,29L31.4,29L31.4,29L31.4,29z"/>
	<path class="st1" d="M123.5,26.1c-0.5,1.2,0,2.1,0.6,2.7c0.8,1,1.9,1.4,3.3,1.1c1.1-0.3,2.2-0.5,3.2-0.9c0.5-0.2,1-0.5,1.5-0.7
		c0.6,0.1,0.8,0.4,1,0.8c1.1,2.2,1.3,2.5,1.1,4.1c-0.8,1-1.9,1.7-3,2.4c-1.1,0.8-2.5,0.9-3.8,1.3c-0.1,0-0.4-0.1-0.6-0.1
		c-2.3,0.1-4.4-0.7-6.4-1.9c-0.1-0.1-0.2-0.1-0.3-0.2c-2.2-0.9-3.1-2.8-3.8-4.9c-0.7-2.2-0.6-4.5-0.3-6.7c0.2-1.6,0.8-3.2,1.2-4.7
		c0.1-0.4,0.3-0.8,0.5-1.1c0.2-0.5,0.5-1,0.8-1.5c0.2-0.4,0.4-0.9,0.8-1.2c0.3-0.3,0.6-0.6,0.8-1c0.6-1.1,1.6-1.8,2.6-2.5
		c0.4-0.3,0.8-0.5,1.2-0.8c0.5-0.3,1-0.4,1.6-0.5c1.7-0.2,3.3,0.3,4.9,0.9c0.5,0.2,0.9,0.3,1.4,0.5c0.8,0.3,1.6,0.6,2.2,1.2
		c0.1,0.2,0.3,0.3,0.5,0.4c1,0.5,1.6,1.4,2.1,2.3c0.1,0.2,0.2,0.5,0.3,0.8c0.1,1.1,0.2,2.3,0,3.4c-0.2,0.8-0.6,1.6-0.9,2.3
		c-0.2,0.4-0.5,0.8-0.7,1.2c-0.7,0.6-1.4,1.2-2,1.8c-0.8,0.4-1.5,0.8-2.3,1.1c-0.5,0.2-1.1,0.3-1.6,0.4c-1,0.1-2,0.1-3,0.2
		c-0.3,0-0.7-0.1-1-0.1C124.5,26.1,124,26.1,123.5,26.1 M118,25.3c0.1-0.1,0.1-0.1,0.2-0.2c0,0,0.1-0.1,0.1-0.1c0,0,0,0-0.1,0.1
		C118.2,25.2,118.1,25.2,118,25.3c0,0.1-0.1,0.1-0.1,0.1C118,25.4,118,25.3,118,25.3 M122.1,25.9l-0.2,0.2c-0.1,0.1-0.1,0.1-0.2,0.2
		c-0.1,0.1-0.1,0.1-0.2,0.2c0,0-0.1,0.1-0.1,0.1c0-0.1,0-0.1,0.1-0.2c0.1-0.1,0.1-0.1,0.2-0.2c0.1-0.1,0.1-0.1,0.2-0.2
		C121.9,26,122,26,122.1,25.9C122.1,25.9,122.1,25.8,122.1,25.9C122.1,25.9,122.1,25.9,122.1,25.9 M119.5,21.5
		c0.1-0.1,0.1-0.1,0.2-0.2c0.4,0,0.5-0.2,0.5-0.6c-0.2,0.2-0.3,0.4-0.5,0.6C119.7,21.4,119.6,21.5,119.5,21.5c0,0.1-0.1,0.1-0.1,0.1
		C119.5,21.6,119.5,21.5,119.5,21.5 M121.6,21.7c0,0,0.1-0.1,0.1-0.1C121.7,21.6,121.7,21.7,121.6,21.7c0,0.1-0.1,0.2-0.2,0.2
		c0,0-0.1,0.1-0.1,0.1c0,0,0-0.1,0.1-0.1C121.5,21.8,121.5,21.8,121.6,21.7 M119.3,19.4c0.1-0.1,0.3-0.1,0.4-0.2
		c0,0-0.1-0.1-0.1-0.1L119.3,19.4c0,0.1-0.1,0.1-0.1,0.1C119.2,19.5,119.3,19.4,119.3,19.4 M133.4,16.9c-0.1,0.1-0.2,0.2-0.3,0.3
		l0.2,0.1C133.3,17.2,133.3,17,133.4,16.9C133.4,16.9,133.4,16.8,133.4,16.9C133.4,16.8,133.4,16.9,133.4,16.9 M120.4,23
		c0.3,0,0.6-0.1,0.5-0.6C120.7,22.6,120.5,22.8,120.4,23C120.3,23,120.3,23.1,120.4,23C120.3,23.1,120.3,23,120.4,23 M133.8,18.8
		c-0.2,0.1-0.5,0.3-0.6,0.6C133.7,19.4,133.8,19.1,133.8,18.8c0-0.1,0.1-0.2,0.2-0.2c0.6-0.1,0.6-0.7,0.9-1c-0.5,0.1-0.7,0.5-0.9,1
		C133.9,18.7,133.9,18.7,133.8,18.8 M132.5,15.5c-0.4,0.4-0.8,0.7-1.2,1.1C131.9,16.3,132.4,16.1,132.5,15.5
		C132.6,15.4,132.6,15.4,132.5,15.5C132.6,15.4,132.6,15.4,132.5,15.5 M126.6,21.5c0.1,0,0.2-0.1,0.4-0.2c0.1-0.1,0.3-0.2,0.4-0.3
		c1.5-0.9,2.3-2.1,2.2-3.9c-0.1-1-0.3-1.3-1.3-1.6c-1.4,0.5-2.1,1.6-2.9,2.8c-0.5,0.9-0.9,1.8-1.2,2.7c0,0.1,0,0.1,0,0.3
		c0.1,0.2,0.3,0.4,0.5,0.5C125.3,21.7,125.9,21.6,126.6,21.5 M131.5,21c-0.4,0.4-0.6,0.6-0.8,0.8C131.1,21.8,131.4,21.6,131.5,21
		 M132,18.2c0.1,0,0.1,0.1,0.2,0.1c0.2-0.2,0.5-0.3,0.6-0.8C132.4,17.8,132.2,18,132,18.2 M122,23.8c-0.3,0-0.6,0-0.8,0.5
		C121.6,24.1,121.8,24,122,23.8 M121.4,19.9c0,0-0.1-0.1-0.1-0.1c-0.2,0.1-0.4,0.2-0.5,0.3c0.1,0.1,0.1,0.1,0.2,0.2
		C121.1,20.1,121.3,20,121.4,19.9 M119.2,24.1C119.2,24.1,119.2,24.1,119.2,24.1l0.2,0c0,0,0,0,0,0
		C119.3,24.1,119.3,24.1,119.2,24.1 M123.2,22.5L123.2,22.5L123.2,22.5L123.2,22.5z M122.3,21L122.3,21L122.3,21L122.3,21z
		 M132.8,19.8L132.8,19.8L132.8,19.8L132.8,19.8z M134.7,20.1L134.7,20.1L134.7,20.1L134.7,20.1z"/>
	<path class="st1" d="M136.1,33.3c0.2-1.8,0.4-3.6,1.5-5.1h1.1c0.6,0.6,1.4,1,2.2,1.2c0.3,0.1,0.6,0.3,0.8,0.4
		c1.2,0.6,2.4,1,3.8,0.9c0.9-0.1,1.6-0.4,2.1-1.2c0-0.6-0.4-0.9-0.9-1.1c-1-0.4-2-0.9-2.9-1.3c-0.8-0.4-1.6-0.7-2.4-1
		c-0.3-0.1-0.5-0.3-0.7-0.4c-0.7-0.6-1.5-1.2-2.2-1.9c-0.5-0.5-0.7-1.1-0.9-1.8c-0.2-1.2-0.2-2.5,0-3.7c0.5-2.1,1.4-4,2.8-5.6
		c0.4-0.4,0.7-0.8,1.1-1.3c0.3-0.2,0.7-0.4,1.1-0.7c1.2-0.6,2.4-1,3.7-0.8c2.1,0.2,4,0.9,5.8,1.7c0.7,0.3,1.5,0.7,2.1,1.1
		c0.8,0.5,1.6,1,2.1,1.8c0.3,0.5,0.6,1,0.6,1.6c0,0.3,0.1,0.7,0.2,1c-0.5,1.5-0.8,2.9-2.2,4c-0.7,0.3-1.6,0.2-2.6,0.2
		c-0.7,0-1.3,0-2,0c-0.3,0-0.6-0.1-0.8-0.2c-0.3-0.6-0.1-1.1,0.1-1.6c0.3-0.7,0.4-1.4,0.3-2.2c-0.2-0.8-0.5-1.3-1.1-1.7
		c-0.8-0.1-1.4,0.3-1.9,0.8c-0.8,0.8-1.4,1.7-1.6,2.8c-0.3,1.1-0.1,1.8,0.9,2.5c0.5,0.3,1,0.6,1.5,0.9c1.3,0.5,2.6,1.1,3.9,1.5
		c1.6,0.5,2.4,1.8,3.4,2.9c0.1,1,0.2,2,0.3,3c-0.3,1.5-1.3,2.6-2,3.9c-0.2,0.3-0.4,0.6-0.7,0.8c-1.6,1.2-3.3,2.2-5.4,2.3
		c-0.7,0-1.4,0.2-2.1,0.2c-0.5,0-1,0-1.5-0.3c-0.2-0.1-0.5-0.1-0.8-0.2c-0.5-0.1-1-0.2-1.4-0.3c-0.6-0.2-1.1-0.3-1.7-0.5
		c-0.5-0.2-0.9-0.4-1.4-0.7c-0.4-0.2-0.8-0.4-1.2-0.7C136.8,34,136.5,33.7,136.1,33.3 M145.7,16.1C145.7,16.1,145.7,16.1,145.7,16.1
		C145.7,16.1,145.7,16.1,145.7,16.1c0-0.1,0.1-0.2,0.2-0.2c0.6,0,0.6-0.5,0.8-0.8c0,0,0.1-0.1,0.1-0.1c0,0,0,0.1-0.1,0.1h-0.5
		c-0.1,0.3-0.2,0.6-0.4,0.8C145.9,15.9,145.8,16,145.7,16.1 M144.9,16.9c-0.1,0.1-0.1,0.1-0.2,0.2c-0.1,0.1-0.2,0.2-0.3,0.3
		c0.1,0,0.1,0.1,0.2,0.1c0-0.1,0.1-0.3,0.1-0.4C144.7,17,144.8,17,144.9,16.9C144.9,16.9,145,16.8,144.9,16.9
		C145,16.8,144.9,16.9,144.9,16.9 M144.9,14.6c0,0-0.1,0.1-0.1,0.1C144.8,14.7,144.9,14.6,144.9,14.6c0-0.1,0.1-0.2,0.2-0.2
		c0,0,0.1-0.1,0.1-0.1c0,0.1-0.1,0.1-0.1,0.2C145,14.5,145,14.5,144.9,14.6 M143.2,11.6C143.3,11.6,143.4,11.6,143.2,11.6
		C143.4,11.5,143.3,11.6,143.2,11.6C143.2,11.7,143.2,11.7,143.2,11.6C143.1,11.7,143.2,11.7,143.2,11.6 M142.8,16.9
		c0.3-0.1,0.5-0.3,0.4-0.6c0.5-0.2,1-0.4,1-1c0,0,0.1-0.1,0.1-0.1c0,0,0,0.1-0.1,0.1c-0.2,0.2-0.5,0.3-0.7,0.5
		c-0.1,0.1-0.2,0.4-0.3,0.6C142.9,16.4,142.8,16.6,142.8,16.9C142.8,16.9,142.7,17,142.8,16.9C142.7,17,142.8,16.9,142.8,16.9
		 M143.9,13.4c-0.4,0-0.5,0.1-0.5,0.6C143.5,13.7,143.7,13.5,143.9,13.4c0-0.1,0-0.1,0.1-0.1C143.9,13.3,143.9,13.3,143.9,13.4
		 M143.6,18.5c0-0.1-0.1-0.1-0.1-0.2c-0.3,0.2-0.5,0.3-0.7,0.5c-0.1,0,0,0.2-0.1,0.5C143.1,19,143.3,18.8,143.6,18.5 M139.2,17.9
		c0,0,0.1,0.1,0.1,0.1c0.1-0.1,0.2-0.2,0.3-0.4c0,0-0.1-0.1-0.1-0.1C139.4,17.7,139.3,17.8,139.2,17.9 M142.7,14.5
		c0,0,0.1,0.1,0.1,0.1c0.1-0.1,0.1-0.2,0.2-0.2c0,0-0.1-0.1-0.1-0.1C142.8,14.3,142.7,14.4,142.7,14.5 M141.8,17.6
		C141.8,17.6,141.9,17.7,141.8,17.6c0.2,0,0.2,0,0.3-0.1c0,0-0.1-0.1-0.1-0.1C142,17.5,141.9,17.5,141.8,17.6 M140.7,18.6
		c0,0,0.1,0.1,0.1,0.1c0.1-0.1,0.2-0.1,0.2-0.2c0,0-0.1-0.1-0.1-0.1C140.9,18.4,140.8,18.5,140.7,18.6 M139,20.5
		c-0.1,0.1-0.1,0.1-0.1,0.1c0,0.1,0,0.1,0,0.2C138.9,20.7,139,20.6,139,20.5 M140.6,21.2C140.6,21.2,140.6,21.2,140.6,21.2l-0.1,0.2
		c0,0,0.1,0,0.1,0C140.6,21.3,140.6,21.2,140.6,21.2 M139.5,22.2C139.5,22.2,139.5,22.3,139.5,22.2l0.2,0.1c0,0,0,0,0-0.1H139.5z
		 M142.2,19.5L142.2,19.5L142.2,19.5L142.2,19.5z M141.3,13.7L141.3,13.7L141.3,13.7L141.3,13.7z M140.6,16.6L140.6,16.6L140.6,16.6
		L140.6,16.6z"/>
</g>
</svg>
