<?xml version="1.0" encoding="utf-8"?>
<!-- Generator: Adobe Illustrator 20.0.0, SVG Export Plug-In . SVG Version: 6.00 Build 0)  -->
<svg version="1.0" id="Layer_1" xmlns="http://www.w3.org/2000/svg" xmlns:xlink="http://www.w3.org/1999/xlink" x="0px" y="0px"
	 viewBox="0 0 201.2 203.3" style="enable-background:new 0 0 201.2 203.3;" xml:space="preserve">
<style type="text/css">
	.st0{fill:#FFFFFF;}
	.st1{fill:#007042;}
	.st2{opacity:0.99;fill:#FFFFFF;enable-background:new    ;}
</style>
<g>
	<path class="st0" d="M74.8,163.6c1.8-12.5-14.1-17.1-13.2-29.3c-0.1-9.2,8.1-15.1,11.7-22.9c0.6-1.9,0.8-3.7,0.7-5.4
		c-0.4-8.6-8.2-15.3-6.9-25c0.4-7.1,2.9-13.3,7.5-18.7c-6.4,2.6-9,9.9-10.8,16.1c-3.1,9.9,4.2,18.8,5,27.6c0.3,3.9-0.6,7.8-4.3,11.8
		c-5.3,6.2-10.6,14.1-6.8,22.4c4,9.2,16.7,16.4,11.2,27.9c-2.9,7.1-9.9,12.6-9.9,20.9c1.9,0.9,3.8,1.8,5.8,2.5
		C62.6,180.3,74.7,174.3,74.8,163.6z"/>
	<path class="st0" d="M85.6,155.9c-2.6-9-14.2-14-11.7-24.8c1.9-8.9,11.9-15.2,10.5-25c-0.1-0.8-0.3-1.7-0.6-2.5
		C80.1,93,72.5,82.5,77,70.2c1.2-3.5,3.7-6.5,5.9-9.7C75.7,64.4,72,72.6,72.2,80.9c-0.3,9.1,6.4,16.9,7.3,25.2
		c0.4,3.4-0.2,6.8-2.5,10.4c-4.8,6.5-11,13.3-8.1,21.8c2.7,8.6,13.4,13.8,12.8,23.8c-0.1,11.7-13.5,19-10,32c2,0.6,4.1,1.2,6.2,1.7
		c-0.3-0.4-0.5-1-0.4-1.8C73.3,179.2,91.1,170.6,85.6,155.9z"/>
	<path class="st0" d="M61.6,157.2c-0.7,2.3-0.8,5.4-1.3,7.9c-2.6,6.7-8.1,12-10.1,18.9c-0.5-0.2-1-0.4-1.5-0.7
		c1.6,1,3.2,1.9,4.8,2.9C53.7,175.5,69,168.7,61.6,157.2z"/>
	<path class="st0" d="M28.7,126.7l0.2-5.3c-8-0.8-13.1,7.4-21.1,6.6L6,121c9.2,0.6,14.7-7.7,23.5-8.1c1.2-1.5,1.3-3.8,1.5-5.9
		c-9.6-1.3-16.2,9.4-26.4,6.2c0,0-0.4-4.4-0.5-6.9h0c-0.1-1-0.1-1.7-0.1-1.7c9.1,3.5,17.1-3,24.8-6.4c2-0.6,5.1,0.4,5.9-1.8
		c-0.1-1.7,3-3.7,0.4-4.8c-11.4-1.5-18.9,12.2-30.6,5.9L4,96.1c-0.1,1.9-0.2,3.8-0.2,5.7c0,12.1,2.2,23.7,6.3,34.4
		c-0.1-0.5-0.1-1.1-0.2-1.7C17.1,133.9,21.6,127.3,28.7,126.7z"/>
	<path class="st0" d="M109.4,165.8c-5.8-13.8,12.4-20.4,12.7-33c-0.1-8.1-8.7-12.7-10.5-20.2c-3.7-3.2-7.6,1.3-12.1,0.4
		c-3.3,0.7-8.4-4.5-10.3,1.1c-2.3,8.3-13,14.4-8.3,24.2c4.5,8.7,15.2,15.1,11.6,26.4c-3.2,10.5-13.7,20.5-7.4,32.5
		c5.1,0.8,10.3,1.3,15.6,1.3c5.6,0,11.1-0.5,16.4-1.4C122.1,186.1,114.1,175.3,109.4,165.8z"/>
	<path class="st0" d="M44.3,174.6c-0.4-1.5-1.6-2.7-2.6-4c-2.6-0.4-4.3,1.3-6.4,2c-1.8-1.6-3.6-3.1-5.1-5.1
		c1.3-3.7,11.6-0.6,6.4-6.8c-3.5-2.2-7,0.9-10.1,2.4l-4.2-5.3c3.6-2.2,7.2-5.3,11.6-4.4c1.1,2,1.2,4.9,3.3,5.9
		c7.6-0.1,12.9-5.9,18.7-10.3c-4-6-7.3-14.3-3.7-21.5c2.9-7.3,10.4-13.4,10.7-21.4c0.1-1.8-0.2-3.8-1-5.8c-4-10.2-5.4-24,2.2-33
		c-4.1,1.1-6.5,6.2-7.9,10.1c-4.5,9.9,1.2,19.2,1.4,28.7c0,1.7-0.1,3.4-0.5,5.2c-3.9,7.8-10.2,14.7-11.2,23.7
		c-4.5,2.9-8.1,7.8-14.5,6.2c-0.2,1.7,0.3,4.2,0.9,6.2c-5.1-0.2-8.5,3.5-12.8,5.3c-2.3-0.7-2.9-3.7-3.7-5.7c5-1.7,8.6-6.7,14.3-6.6
		c0.7-1.8-0.4-3.5-0.7-5.3c-5.5-2.5-13.5,8.3-17.3,5.6c6.7,15.3,17.3,28.5,30.5,38.4c-0.8-0.7-1.5-1.4-2.2-2.1L44.3,174.6z"/>
	<path class="st0" d="M165.2,92.1c0.7,1.9,1,3.9,2.4,5.5c10.8-0.1,18.3,11.3,29.7,6.8c0-0.9,0-1.8,0-2.7c0-1.6,0-3.2-0.1-4.8
		C185.4,105.5,177.3,88.2,165.2,92.1z"/>
	<path class="st0" d="M170.3,107.1l1.1,5.5c9,0.3,14.6,8.9,24,8.6c-0.4,0.7-0.5,1.8-0.6,2.8c0.8-3.5,1.5-7.1,1.9-10.7
		C186.6,116.1,180,105.5,170.3,107.1z"/>
	<path class="st0" d="M188.3,141.2c-5.7-1.4-10.2-6.5-16.3-6.4l-1.1,5.1c5.8,0.1,9.5,5.3,14.7,6.8c0,0.6-0.1,1.1-0.3,1.6
		c1.5-2.7,2.8-5.5,4.1-8.3C189.1,140.4,188.8,140.8,188.3,141.2z"/>
	<path class="st0" d="M122.3,153.9c5.6-8.3,15.5-16.1,9.9-27c-3.4-6.8-10.3-10.8-10.1-19.4l0.2-1.4c2.3-12.1,11.4-23.5,5-36.4
		c-1.7-3.8-5.1-7.7-8.8-9.9l-0.2,0.2c7.5,7.3,9.8,19.2,5.7,28.8c-1.9,5.6-6,11.2-6.9,17.3c-0.4,2.8-0.1,5.8,1.6,8.9
		c4.8,7.5,13.1,15.5,7.9,25.3c-5.5,8.1-14.7,15.9-11,26.4c4,9.1,12.3,17.8,8,29c2.3-0.6,4.6-1.2,6.8-1.9
		C134.7,178.4,113.4,169.3,122.3,153.9z"/>
	<path class="st0" d="M190.1,128c-6.1-1.5-10.5-6.8-17.2-6.8c-0.8,1.5-0.3,3.5-0.4,5.3c7,1.1,12.1,7,19.1,8.1c0,0,0,0.1,0,0.1
		c0.8-2.2,1.5-4.4,2.1-6.6C193.1,128.8,192,128.9,190.1,128z"/>
	<path class="st0" d="M140.4,157.4l-0.4-0.4c-2.2,2.5-1.5,6.4-1.3,9.7c2.6,6.7,8.8,11.9,9.9,19.1c1.1-0.6,2.2-1.3,3.3-2
		C148.8,174.6,139.6,168.1,140.4,157.4z"/>
	<path class="st0" d="M169.4,147.6c-0.1-2,1.1-4.2,0.7-6.4c-5.9,1.8-9.9-3.7-14.3-7c-0.1-10.8-11.5-17.9-12.1-28
		c-0.1-2,0.2-4.2,1.1-6.5c3.7-8.6,2.6-19.9-1.5-27.9c-1.2-2.1-3.5-3.8-5.5-5c3,6.4,6.7,13.9,4.8,21.8c-0.2,6.1-3.8,11.9-3.8,17.7
		c0,2.1,0.4,4.2,1.6,6.3c4.8,8.6,13.3,16.7,10.1,27.5c-0.9,3.3-3.5,5.9-4.2,9.2c5.6,4.6,10.9,9.8,18.3,10.1c2.6-1.7,1.2-9.2,6.6-5.7
		l7.9,4c-0.6,2.1-2.4,4-4,5.5c-3-1.5-5.9-3.2-9.7-3.1c-1.1,1.2-2.1,2.5-2,4.2c2.6,0.4,5.1,1.5,7.3,3.1c-1,2.2-3,3.6-4.8,5.3
		l-6.1-2.2c-1,1.5-3.2,3-2.4,4.6c1.3,0.6,2.8,1.4,3.8,2.3c9-7.3,16.7-16.1,22.7-26.2c-0.4,0.5-0.7,1.1-1,1.6
		C178.2,151.2,174.7,147.3,169.4,147.6z"/>
	<path class="st0" d="M136,152.2c4.3-6.6,11.6-12.9,9-22c-2.6-8.8-12-14.2-11.9-24.1l0-0.8c2.1-10.3,8.6-21.2,3.3-32.1
		c-1.5-4.4-4.8-9.4-9.2-11.2c6.7,7.6,9.3,20.1,5.5,30.3c-1.9,4.1-4.6,8.9-4.8,13.8h0c-0.1,2.5,0.4,5,2,7.4
		c5.1,8.2,13.9,17.2,8.8,27.9c-5.7,8.6-15.7,17.3-10.1,28.6c4,6.6,10,13.2,8.6,21.3c2-0.8,3.9-1.7,5.9-2.6
		C142.8,175.6,123.1,165.5,136,152.2z"/>
	<path class="st0" d="M84.1,77.2c2.3-3.2,6.3-0.7,8.8-0.4v-0.9c-1.4-2.1-4.2-3.2-7-3.1c-0.7,0-1.3,0.1-2,0.3c-1,0.2-1.6,1.1-1.3,2.2
		C82.4,76.2,82.6,77.8,84.1,77.2z"/>
	<path class="st0" d="M193.8,89.1c-6.9-11.4-17.1-22-14.3-36.9c0.3-1-0.4-2.1-1.3-2.2c-4.5,1.8-7.9,6.2-9.7,10.6
		c-0.7,2.6-1.2,5.3-2.2,7.7c-5.4-2.8-11.1-5.5-17.6-4.8c-2.4,0.3-5.7,0.4-6.2,2.9c7.4,4,13.5,10.6,18,17.6c3.2-0.5,7-0.1,10.3,0.4
		C178.4,86.2,185.9,94.3,193.8,89.1z"/>
	<path class="st0" d="M34.8,67.7c-0.7-6.7-3.4-12.8-9-17.1c-0.5-0.3-1.3-0.8-2-0.9c-0.4,0-0.8,0.1-1.1,0.7
		C25.3,66.1,15,77.1,7.8,89.1c2.4,2,6.3,1.7,9.2,1.1c7.7-3.1,15-8.4,24.2-6.6c2.7-4.6,7.3-9.1,11-12.8c2.3-2,5.4-3.2,7-5.5
		C51.6,60.3,41.9,65,34.8,67.7z"/>
	<path class="st0" d="M107.4,58.3c-2.1-0.3-4.3-0.4-6.4-0.5c-0.4,0-0.8,0-1.2,0c-6,0.1-11.7,1.7-15.3,6.6c-0.5,1.4-2.7,3.4-0.7,4.6
		c4.6-0.3,9.9-0.9,13,3.1c0,3.5,2.3,8.2-1.5,9.9c-3.2-2.9-6.9,1.2-10.3-1.1c-1.6-1-2.6,0.2-3.3,1.6c-1,9.1,3.8,19.1,12.3,24.2
		c3.4,1.2,8.1,2.4,11.7,0.7c8.6-4,12.2-13.3,13.8-21.8c-0.2-1.6-0.1-4.8-2.4-4.8c-2.6,1.6-6.3,0.7-9,0c-1.6,0.5-1.7,2.9-3.5,3.3
		l-1.1-0.9c-1-4-1.5-9.7,2.2-12.5c4.2-1.7,9.1-2.4,13.4-1.1c0.8-1.4-0.4-2.5-0.7-3.7C116.3,61.2,111.6,59.4,107.4,58.3z
		 M100.6,100.7c-4,0.3-4.8-2.9-7.7-4.8l-0.2-1.3c5.3,0.8,11.1-0.2,15.8,0.5C106.7,97.6,104.1,100.9,100.6,100.7z M108.7,86.1v6.6
		H92.7v-6.6H108.7z"/>
	<path class="st0" d="M130.9,46.2c-0.4-4.2,2.8-8.7,3.5-13c-8.1,0.5-14.4,5.4-21.1,9.2c-1.5-3.7-3.1-7.5-4.6-11.2l8.8-8.4l0.2-1.1
		l-11.9-0.7c-2-3.6-2.9-7.9-5.3-11.2c-2,3.7-3.3,7.7-5.3,11.4L83.4,22v0.9l9,8.1c-1.1,4.2-2.1,8.7-4.8,11.9
		c-5.3-3.2-10.5-6.6-16.3-8.8c-1.4-0.4-3.4-1.2-4.6-0.2c1.8,4,4.4,8.4,4,12.8c-2.4-0.4-4.3-2-6.6-2.7c-2.7-0.7-5.9-2.2-8.6-1.3
		c4.4,6.2,8,12.6,9.2,20c14.6-7,31.6-10.9,49.3-7.9c8.3,1.3,15.9,4.7,23.3,7.5c0.3-7.8,5.2-14,8.6-20.2
		C140.4,41.7,135.9,44.8,130.9,46.2z M108.9,46.2c-5.5-0.6-11.3,0.1-16.5,0.2c-0.6-0.6-1.8-1.5-0.7-2.2l8.4-6.4
		c3.4,2,7.1,4.5,9.9,7.3L108.9,46.2z"/>
	<path class="st0" d="M114,73c-0.3,0-0.6,0-0.9,0c-1.5,1-6,0.3-4.4,3.7c2.8-2.2,6.7-0.7,9.5,0.4c1-0.5,0.8-1.5,0.9-2.4
		C118.1,73.1,116,73,114,73z"/>
	<path class="st1" d="M91.8,44.2c-1.1,0.7,0.1,1.6,0.7,2.2c5.2-0.1,11-0.8,16.5-0.2l1.1-1.1c-2.8-2.7-6.4-5.3-9.9-7.3L91.8,44.2z"/>
	<path class="st1" d="M92.6,94.6l0.2,1.3c2.9,1.9,3.7,5.1,7.7,4.8c3.5,0.2,6.2-3.1,7.9-5.7C103.7,94.4,97.9,95.4,92.6,94.6z"/>
	<path class="st1" d="M197.3,104.5C197.3,104.5,197.3,104.5,197.3,104.5c-11.4,4.5-18.8-6.9-29.7-6.8c-1.4-1.6-1.8-3.6-2.4-5.5
		c12.1-3.9,20.2,13.4,32,4.8c0.1-0.1,0.2-0.1,0.3-0.2c-0.9-14.9-4.1-28.9-11-41.3c-7.2-14.2-20.4-28.2-34.3-36.7
		C138,8.6,118.8,3.6,99.8,3.8c-15.7,0.1-31.3,3.8-43.9,11C24.9,30.5,6.2,62.5,3.8,95.7L4,96.1l0.7,1.3c11.7,6.2,19.2-7.5,30.6-5.9
		c2.6,1.2-0.5,3.1-0.4,4.8c-0.9,2.2-4,1.2-5.9,1.8c-7.8,3.4-15.8,9.9-24.8,6.4c0,0,0.1,0.7,0.1,1.7h0c0.2,2.5,0.5,6.9,0.5,6.9
		c10.2,3.2,16.8-7.4,26.4-6.2c-0.2,2.1-0.4,4.4-1.5,5.9c-8.8,0.4-14.3,8.7-23.5,8.1l1.8,7c8,0.8,13.1-7.4,21.1-6.6l-0.2,5.3
		c-7,0.7-11.6,7.3-18.7,7.7c0,0.6,0.1,1.2,0.2,1.7c0.3,2.5,1,3.9,1.9,4.6c3.8,2.7,11.8-8.1,17.3-5.6c0.3,1.8,1.3,3.4,0.7,5.3
		c-5.7-0.1-9.3,4.9-14.3,6.6c0.9,2.1,1.5,5,3.7,5.7c4.3-1.8,7.7-5.5,12.8-5.3c-0.6-1.9-1.1-4.5-0.9-6.2c6.4,1.7,10-3.3,14.5-6.2
		c1-9,7.3-15.9,11.2-23.7c0.4-1.7,0.6-3.5,0.5-5.2c-0.2-9.5-5.9-18.8-1.4-28.7c1.4-3.9,3.8-9,7.9-10.1c-7.6,9-6.2,22.8-2.2,33
		c0.8,2.1,1.1,4,1,5.8c-0.3,8-7.8,14.2-10.7,21.4c-3.6,7.3-0.3,15.5,3.7,21.5c-5.8,4.5-11.1,10.2-18.7,10.3c-2.1-1-2.2-4-3.3-5.9
		c-4.5-0.9-8,2.2-11.6,4.4l4.2,5.3c3.1-1.5,6.6-4.6,10.1-2.4c5.2,6.2-5.1,3.1-6.4,6.8c1.5,2,3.2,3.4,5.1,5.1c2.1-0.7,3.8-2.3,6.4-2
		c1,1.2,2.2,2.5,2.6,4l-4,2.4c0.7,0.7,1.4,1.4,2.2,2.1c2,1.7,4.1,3.3,6.2,4.3c0.5,0.2,1,0.5,1.5,0.7c2.1-6.9,7.6-12.2,10.1-18.9
		c0.5-2.6,0.7-5.7,1.3-7.9c7.3,11.4-7.9,18.2-8.1,29c0,0.1,0,0.1,0,0.2c1.6,1.5,3.6,2.3,5.5,3.1c0-0.2,0-0.3,0-0.4
		c0-8.3,6.9-13.7,9.9-20.9c5.5-11.5-7.2-18.7-11.2-27.9c-3.8-8.4,1.5-16.2,6.8-22.4c3.7-4,4.6-7.9,4.3-11.8c-0.7-8.8-8-17.7-5-27.6
		c1.8-6.2,4.4-13.5,10.8-16.1c-4.6,5.3-7,11.6-7.5,18.7c-1.3,9.7,6.5,16.4,6.9,25c0.1,1.7-0.1,3.5-0.7,5.4
		c-3.6,7.8-11.7,13.6-11.7,22.9c-1,12.2,15,16.8,13.2,29.3c-0.1,10.7-12.2,16.7-10,28c0,0.2,0.1,0.4,0.1,0.5l6.8,2.2
		c0-0.1-0.1-0.2-0.1-0.3c-3.6-13,9.9-20.3,10-32c0.7-10-10-15.2-12.8-23.8c-2.9-8.5,3.4-15.3,8.1-21.8c2.3-3.6,2.9-7.1,2.5-10.4
		c-1-8.3-7.7-16.1-7.3-25.2C72,72.6,75.7,64.4,83,60.5c-2.2,3.1-4.7,6.1-5.9,9.7c-4.5,12.3,3.1,22.9,6.8,33.4
		c0.3,0.9,0.5,1.7,0.6,2.5c1.4,9.8-8.6,16-10.5,25c-2.6,10.8,9.1,15.8,11.7,24.8c5.5,14.7-12.3,23.3-8.1,38c0,0.8,0.2,1.4,0.4,1.8
		c1.3,1.9,5,1,7.3,1.7c0-0.1-0.1-0.2-0.1-0.3c-6.3-12.1,4.2-22,7.4-32.5c3.6-11.3-7.2-17.7-11.6-26.4c-4.7-9.8,6-15.9,8.3-24.2
		c2-5.6,7-0.4,10.3-1.1c4.5,0.8,8.4-3.6,12.1-0.4c1.8,7.5,10.5,12.1,10.5,20.2c-0.3,12.6-18.5,19.2-12.7,33
		c4.7,9.5,12.7,20.3,7.6,31.3c-0.1,0.1-0.1,0.3-0.2,0.4l6.8-1.5c0-0.1,0.1-0.2,0.1-0.3c4.3-11.2-4-19.9-8-29
		c-3.7-10.5,5.5-18.3,11-26.4c5.2-9.8-3.1-17.8-7.9-25.3c-1.6-3.1-2-6.1-1.6-8.9c0.8-6,5-11.6,6.9-17.3c4-9.6,1.8-21.5-5.7-28.8
		l0.2-0.2c3.7,2.2,7.1,6.1,8.8,9.9c6.4,12.9-2.8,24.3-5,36.4l-0.2,1.4c-0.2,8.5,6.7,12.5,10.1,19.4c5.6,11-4.3,18.8-9.9,27
		c-9,15.4,12.3,24.5,8.2,39.8c0,0.1,0,0.1,0,0.2l6.6-2.2c0-0.1,0-0.3,0.1-0.4c1.4-8.1-4.7-14.7-8.6-21.3c-5.6-11.3,4.4-20,10.1-28.6
		c5.1-10.7-3.7-19.7-8.8-27.9c-1.6-2.4-2.1-4.9-2-7.4h0c0.3-4.8,2.9-9.7,4.8-13.8c3.8-10.3,1.2-22.7-5.5-30.3
		c4.5,1.8,7.8,6.8,9.2,11.2c5.3,10.9-1.2,21.8-3.3,32.1l0,0.8c-0.1,9.8,9.2,15.3,11.9,24.1c2.6,9.1-4.7,15.4-9,22
		c-12.8,13.4,6.8,23.4,7,36.5c0,0.1,0,0.3,0,0.4c1.9-0.8,4.4-1.2,5.5-3.1c0-0.1,0-0.1,0-0.2c-1-7.3-7.2-12.5-9.9-19.1
		c-0.1-3.2-0.9-7.2,1.3-9.7l0.4,0.4c-0.8,10.7,8.4,17.2,11.4,26.4c0,0.1,0,0.1,0.1,0.2c3.3-2,6.7-3.9,9.5-6.8c0,0-0.1-0.1-0.1-0.1
		c-1-1-2.5-1.8-3.8-2.3c-0.7-1.6,1.4-3.2,2.4-4.6l6.1,2.2c1.8-1.7,3.8-3.1,4.8-5.3c-2.2-1.5-4.6-2.7-7.3-3.1c-0.1-1.7,0.9-3,2-4.2
		c3.7-0.1,6.7,1.6,9.7,3.1c1.6-1.5,3.4-3.4,4-5.5l-7.9-4c-5.4-3.4-4,4-6.6,5.7c-7.4-0.3-12.7-5.5-18.3-10.1c0.7-3.4,3.3-5.9,4.2-9.2
		c3.2-10.8-5.4-18.9-10.1-27.5c-1.2-2.1-1.6-4.2-1.6-6.3c0-5.8,3.6-11.7,3.8-17.7c1.8-7.8-1.8-15.4-4.8-21.8c2.1,1.2,4.3,2.9,5.5,5
		c4.1,8.1,5.3,19.3,1.5,27.9c-0.9,2.3-1.2,4.5-1.1,6.5c0.6,10.1,12,17.2,12.1,28c4.4,3.3,8.4,8.8,14.3,7c0.4,2.1-0.7,4.4-0.7,6.4
		c5.3-0.3,8.8,3.7,13.4,5.1c0.3-0.5,0.7-1.1,1-1.6c0.6-0.9,1.2-1.8,1.6-2.7c0.2-0.5,0.3-1.1,0.3-1.6c-5.2-1.5-8.9-6.7-14.7-6.8
		l1.1-5.1c6.1-0.1,10.6,5,16.3,6.4c0.5-0.3,0.8-0.8,1.2-1.2c1.1-1.5,1.6-3.5,2.1-5.3c0,0,0-0.1,0-0.1c-7-1.1-12.1-7-19.1-8.1
		c0.1-1.7-0.4-3.8,0.4-5.3c6.7,0,11.1,5.4,17.2,6.8c1.9,0.9,3,0.8,3.6,0.1c0.8-0.8,0.9-2.5,1.1-4.1c0.1-1.1,0.2-2.1,0.6-2.8
		c-9.3,0.4-14.9-8.3-24-8.6l-1.1-5.5c9.7-1.6,16.3,9,26.4,6.2c0,0,0,0,0,0c1-2.5,0.7-4.7,0.7-7.2L197.3,104.5z M52.2,70.8
		c-3.7,3.7-8.3,8.1-11,12.8C32,81.7,24.7,87.1,17,90.2c-2.9,0.6-6.8,0.9-9.2-1.1c7.3-12,17.5-22.9,14.9-38.7
		c0.3-0.5,0.7-0.7,1.1-0.7c0.7,0,1.4,0.6,2,0.9c5.7,4.4,8.4,10.5,9,17.1c7.1-2.7,16.8-7.4,24.4-2.4C57.6,67.6,54.5,68.8,52.2,70.8z
		 M83.9,73c0.6-0.1,1.3-0.2,2-0.3c2.9-0.1,5.7,1,7,3.1v0.9c-2.5-0.2-6.5-2.7-8.8,0.4c-1.5,0.7-1.7-1-1.5-2
		C82.2,74.1,82.9,73.2,83.9,73z M119,69.5c-4.3-1.3-9.2-0.6-13.4,1.1c-3.7,2.8-3.2,8.5-2.2,12.5l1.1,0.9c1.8-0.4,1.9-2.8,3.5-3.3
		c2.7,0.7,6.5,1.6,9,0c2.3,0.1,2.2,3.2,2.4,4.8c-1.6,8.5-5.2,17.7-13.8,21.8c-3.6,1.8-8.2,0.6-11.7-0.7
		c-8.5-5.1-13.3-15.1-12.3-24.2c0.7-1.4,1.7-2.5,3.3-1.6c3.4,2.3,7.2-1.8,10.3,1.1c3.8-1.7,1.5-6.4,1.5-9.9c-3.1-4-8.3-3.4-13-3.1
		c-2.1-1.3,0.2-3.2,0.7-4.6c3.5-4.9,9.2-6.5,15.3-6.6c0.4,0,0.8,0,1.2,0c2.1,0,4.3,0.2,6.4,0.5c4.3,1.1,8.9,2.9,11,7.5
		C118.6,67,119.8,68.1,119,69.5z M119,74.8c-0.1,0.9,0.2,1.9-0.9,2.4c-2.8-1.1-6.7-2.6-9.5-0.4c-1.6-3.4,2.9-2.7,4.4-3.7
		c0.3,0,0.6,0,0.9,0C116,73,118.1,73.1,119,74.8z M137.3,62.2c-7.4-2.8-15-6.2-23.3-7.5c-17.7-3-34.7,0.9-49.3,7.9
		c-1.2-7.4-4.8-13.8-9.2-20c2.6-0.9,5.9,0.6,8.6,1.3c2.3,0.7,4.2,2.2,6.6,2.7c0.4-4.4-2.1-8.7-4-12.8c1.2-1,3.2-0.2,4.6,0.2
		c5.8,2.2,11,5.6,16.3,8.8c2.7-3.2,3.7-7.7,4.8-11.9l-9-8.1V22l11.9-0.7c2-3.7,3.3-7.7,5.3-11.4c2.4,3.3,3.2,7.6,5.3,11.2l11.9,0.7
		l-0.2,1.1l-8.8,8.4c1.5,3.7,3.1,7.5,4.6,11.2c6.7-3.9,13.1-8.7,21.1-9.2c-0.7,4.3-4,8.7-3.5,13c5-1.4,9.5-4.5,15-4.2
		C142.5,48.2,137.6,54.5,137.3,62.2z M160.6,83.8c-4.5-7-10.6-13.6-18-17.6c0.4-2.4,3.8-2.6,6.2-2.9c6.5-0.7,12.2,2,17.6,4.8
		c1-2.4,1.5-5.1,2.2-7.7c1.8-4.3,5.2-8.7,9.7-10.6c0.9,0.1,1.6,1.2,1.3,2.2c-2.9,15,7.4,25.5,14.3,36.9c-7.9,5.3-15.4-2.9-22.9-4.8
		C167.6,83.7,163.8,83.3,160.6,83.8z"/>
	<path class="st0" d="M92.7,92.7h16.1v-6.6H92.7V92.7z M95.6,88.7c0.9-1,1.7-1,2.6-0.8c0.9-0.3,1.9-0.5,2.8-0.5c1.6,0,3.1,0.5,4,1.5
		c-0.1,0.2-0.2,0.4-0.3,0.5c-0.1,0.1-0.1,0.2-0.2,0.2c-0.6,0.6-1.3,0.8-2.2,0.9c-0.9,0.4-1.2,0.6-2.4,0.6c-0.9-0.1-1.5-0.4-2.2-0.7
		c-0.2,0-0.4,0-0.6,0.1c-0.3-0.1-0.4-0.3-0.4-0.5c-0.3-0.1-0.6-0.2-1-0.3C95.2,89.4,95.3,89,95.6,88.7z"/>
	<path class="st2" d="M92.7,92.7h16.1v-6.6H92.7V92.7z M95.6,88.7c0.9-1,1.7-1,2.6-0.8c0.9-0.3,1.9-0.5,2.8-0.5c1.6,0,3.1,0.5,4,1.5
		c-0.1,0.2-0.2,0.4-0.3,0.5c-0.1,0.1-0.1,0.2-0.2,0.2c-0.6,0.6-1.3,0.8-2.2,0.9c-0.9,0.4-1.2,0.6-2.4,0.6c-0.9-0.1-1.5-0.4-2.2-0.7
		c-0.2,0-0.4,0-0.6,0.1c-0.3-0.1-0.4-0.3-0.4-0.5c-0.3-0.1-0.6-0.2-1-0.3C95.2,89.4,95.3,89,95.6,88.7z"/>
	<path class="st1" d="M102.2,90.4c0.9-0.1,1.6-0.3,2.2-0.9c0,0,0,0,0,0C103.4,90,102.7,90.2,102.2,90.4z"/>
	<path class="st2" d="M102.2,90.4c0.9-0.1,1.6-0.3,2.2-0.9c0,0,0,0,0,0C103.4,90,102.7,90.2,102.2,90.4z"/>
	<path class="st1" d="M104.5,88.8c0.2,0.2,0.2,0.4,0.1,0.6c0.1-0.2,0.2-0.3,0.3-0.5c-0.9-1-2.4-1.5-4-1.5c-1,0-1.9,0.2-2.8,0.5
		c0.7,0.1,1.3,0.4,2,0.4C101.3,88.2,102.6,86.9,104.5,88.8z"/>
	<path class="st2" d="M104.5,88.8c0.2,0.2,0.2,0.4,0.1,0.6c0.1-0.2,0.2-0.3,0.3-0.5c-0.9-1-2.4-1.5-4-1.5c-1,0-1.9,0.2-2.8,0.5
		c0.7,0.1,1.3,0.4,2,0.4C101.3,88.2,102.6,86.9,104.5,88.8z"/>
	<path class="st1" d="M97,90.4c0.2,0,0.4-0.1,0.6-0.1c-0.3-0.1-0.6-0.3-1-0.4C96.7,90.1,96.8,90.3,97,90.4z"/>
	<path class="st2" d="M97,90.4c0.2,0,0.4-0.1,0.6-0.1c-0.3-0.1-0.6-0.3-1-0.4C96.7,90.1,96.8,90.3,97,90.4z"/>
	<path class="st1" d="M95.6,89.6c0.4,0.1,0.7,0.2,1,0.3c0.4,0.1,0.7,0.3,1,0.4c0.7,0.3,1.3,0.6,2.2,0.7c1.2,0,1.4-0.2,2.4-0.6
		c0.5-0.2,1.1-0.5,2.1-0.8c0,0,0,0,0,0c0.1,0,0.1-0.1,0.2-0.2c0.1-0.2,0.1-0.4-0.1-0.6c-1.9-1.9-3.2-0.5-4.4-0.5
		c-0.7,0-1.3-0.2-2-0.4c-0.9-0.2-1.7-0.2-2.6,0.8C95.3,89,95.2,89.4,95.6,89.6z"/>
	<polygon class="st1" points="168.2,186.8 170.2,186.8 170.2,192.4 171.6,192.4 171.6,186.8 173.6,186.8 173.6,185.7 168.2,185.7 	
		"/>
	<polygon class="st1" points="177.7,190.3 176.5,185.7 174.4,185.7 174.4,192.4 175.7,192.4 175.7,187.1 177,192.4 178.4,192.4 
		179.7,187.1 179.7,192.4 181,192.4 181,185.7 178.9,185.7 	"/>
</g>
</svg>
